<?xml version="1.0" encoding="UTF-8"?>
<svg version="1.1" xmlns="http://www.w3.org/2000/svg" width="1254" height="1254">
<path d="M0 0 C413.82 0 827.64 0 1254 0 C1254 413.82 1254 827.64 1254 1254 C840.18 1254 426.36 1254 0 1254 C0 840.18 0 426.36 0 0 Z " fill="#FDFDFD" transform="translate(0,0)"/>
<path d="M0 0 C1.05668381 -0.0071553 2.11336761 -0.01431061 3.20207214 -0.02168274 C6.66649709 -0.03847744 10.12961099 -0.01921854 13.59399414 0.00219727 C16.01957811 0.00136767 18.44516201 -0.00109515 20.8707428 -0.00511169 C25.94362396 -0.0079635 31.01606212 0.00667088 36.08886719 0.03417969 C42.56938632 0.06824219 49.04911281 0.06224388 55.52966976 0.04351711 C60.53563461 0.0329135 65.54141725 0.04191589 70.54736519 0.05690193 C72.93581157 0.06206072 75.32427716 0.06163013 77.71272087 0.05535698 C81.06019415 0.04986498 84.40655946 0.07040916 87.75390625 0.09765625 C89.21389038 0.08786743 89.21389038 0.08786743 90.70336914 0.07788086 C100.08482817 0.20676289 108.43386077 2.91088285 115.94165039 8.63110352 C116.71895508 9.19700195 117.49625977 9.76290039 118.29711914 10.34594727 C121.34599893 12.98050365 123.57525313 15.92358371 125.87915039 19.19360352 C126.85268889 20.54677025 127.82666817 21.89961994 128.80102539 23.25219727 C129.56769531 24.3231665 129.56769531 24.3231665 130.34985352 25.41577148 C133.08106596 29.21684843 135.85396471 32.98706694 138.62915039 36.75610352 C139.21237061 37.54895752 139.79559082 38.34181152 140.39648438 39.15869141 C145.51189315 46.09189846 150.73479595 52.94031467 155.97070312 59.78271484 C161.03343476 66.409901 166.0034227 73.10023378 170.93823242 79.82299805 C179.11033563 90.95577209 187.43160179 101.9705523 195.81665039 112.94360352 C201.50910794 120.39380784 207.11185508 127.90244348 212.65209961 135.46630859 C217.01402509 141.40738181 221.46201776 147.27840341 225.94165039 153.13110352 C231.59518434 160.51752143 237.15635233 167.96304817 242.65258789 175.46704102 C247.6747398 182.30716646 252.81776701 189.05101346 257.97631836 195.78857422 C262.40588524 201.58491464 266.75972847 207.43069801 271.06665039 213.31860352 C276.20068723 220.33259742 281.47023362 227.22489877 286.82836914 234.06884766 C292.64556407 241.50619674 298.30135019 249.05924401 303.94165039 256.63110352 C306.08537932 259.50768103 308.23164551 262.38234428 310.37915039 265.25610352 C310.86335449 265.90724121 311.34755859 266.55837891 311.84643555 267.22924805 C312.5413208 268.15906494 312.5413208 268.15906494 313.25024414 269.10766602 C313.69352051 269.70869141 314.13679688 270.3097168 314.59350586 270.92895508 C315.90147812 272.65090998 315.90147812 272.65090998 317.43432617 274.10668945 C319.40303346 276.08285654 320.85402842 277.7736372 321.14355469 280.60693359 C320.60987015 286.88734443 318.5410369 292.94977934 316.69165039 298.94360352 C311.67551407 315.67263031 307.6309669 332.56543834 303.94165039 349.63110352 C303.28165039 349.63110352 302.62165039 349.63110352 301.94165039 349.63110352 C301.78116211 351.25145508 301.78116211 351.25145508 301.61743164 352.90454102 C300.91925334 358.4679583 299.51805979 363.83143008 298.12915039 369.25610352 C297.88100586 370.24739258 297.63286133 371.23868164 297.37719727 372.26000977 C296.05132107 377.5027874 294.64047045 382.70945054 293.12524414 387.90063477 C290.39702203 397.36821117 288.01619469 406.92420291 285.62280273 416.48095703 C284.81704333 419.6920376 284.0025006 422.90081132 283.18774414 426.10961914 C280.63754732 436.23308318 278.14004763 446.24203822 276.94165039 456.63110352 C276.28165039 456.63110352 275.62165039 456.63110352 274.94165039 456.63110352 C274.88106445 457.40196289 274.82047852 458.17282227 274.75805664 458.96704102 C274.67426758 459.96993164 274.59047852 460.97282227 274.50415039 462.00610352 C274.42293945 463.00383789 274.34172852 464.00157227 274.25805664 465.02954102 C273.94165039 467.63110352 273.94165039 467.63110352 272.94165039 469.63110352 C269.65017383 469.38443548 268.74397881 468.42768039 266.39086914 466.00610352 C265.46035169 464.88931492 264.54027787 463.76376685 263.62915039 462.63110352 C262.89414307 461.73935425 262.89414307 461.73935425 262.14428711 460.82958984 C259.00437799 457.00234001 255.94308955 453.11653601 252.93383789 449.18579102 C250.23827045 445.72912218 247.46342235 442.33928429 244.69165039 438.94360352 C240.55880993 433.87695111 236.46524879 428.78495114 232.44165039 423.63110352 C227.96132537 417.89304278 223.38645738 412.23738744 218.78198242 406.59863281 C215.24053416 402.25355225 211.76007413 397.86662194 208.31665039 393.44360352 C204.78958949 388.91754849 201.17196788 384.49106058 197.44165039 380.13110352 C193.22904327 375.20745124 189.18192086 370.17968957 185.20288086 365.06591797 C181.72011136 360.59744741 178.1569715 356.20093874 174.56665039 351.81860352 C170.03268964 346.27844292 165.63589149 340.65252466 161.31665039 334.94360352 C156.5435413 328.6390653 151.58397019 322.55151287 146.43383789 316.55297852 C142.83064201 312.32854196 139.38451109 307.98635794 135.94165039 303.63110352 C131.27098617 297.74283233 126.53669837 291.91701141 121.71459961 286.15185547 C118.27627017 282.03984346 114.87779739 277.8968439 111.48852539 273.74438477 C108.31795086 269.8636531 105.12877195 265.99824596 101.94165039 262.13110352 C97.30021759 256.49829672 92.6610613 250.86388138 88.05102539 245.20532227 C86.50956583 243.32417069 84.95573049 241.45314093 83.39477539 239.58813477 C82.56461914 238.59168945 81.73446289 237.59524414 80.87915039 236.56860352 C80.12504883 235.67012695 79.37094727 234.77165039 78.59399414 233.84594727 C76.94165039 231.63110352 76.94165039 231.63110352 76.94165039 229.63110352 C76.28165039 229.63110352 75.62165039 229.63110352 74.94165039 229.63110352 C74.75602539 231.39454102 74.75602539 231.39454102 74.56665039 233.19360352 C74.07424654 237.15364014 73.0651197 240.79809058 71.94165039 244.63110352 C71.65956168 246.06643724 71.38995625 247.50425045 71.12915039 248.94360352 C70.25901256 253.4324859 69.08074711 257.80107395 67.82446289 262.19360352 C64.35296008 274.52160617 61.25956475 286.94683026 58.12333679 299.3633728 C56.78243154 304.66861619 55.43612609 309.97249433 54.09096909 315.27666092 C53.59751742 317.22267758 53.10429982 319.16875346 52.6111145 321.11483765 C50.32654291 330.12601939 48.02326167 339.13197952 45.69165039 348.13110352 C42.7580572 359.46488907 39.83472485 370.80124297 36.92663574 382.14160156 C36.44671066 384.012042 35.96618726 385.88232905 35.48498535 387.75244141 C32.98922994 397.45329187 30.52634479 407.15592909 28.29974365 416.92269897 C27.22791209 421.58351536 25.96965478 426.1676485 24.62915039 430.75610352 C21.82355742 440.52692926 19.67331896 450.44718319 17.52832031 460.37963867 C13.05058875 480.80059162 7.71129474 497.9923013 -9.85522461 510.61547852 C-17.60833077 515.49426239 -25.79551669 518.74644733 -35.01200867 518.76481628 C-35.98361938 518.76908127 -36.9552301 518.77334625 -37.95628357 518.77774048 C-39.01050003 518.77728729 -40.06471649 518.77683411 -41.15087891 518.77636719 C-42.82964615 518.78140511 -42.82964615 518.78140511 -44.54232788 518.7865448 C-48.23908601 518.79603904 -51.93579881 518.7979968 -55.63256836 518.79907227 C-58.19895954 518.80228463 -60.76535054 518.80564868 -63.33174133 518.80915833 C-68.70749413 518.81514486 -74.0832289 518.8170414 -79.45898438 518.81640625 C-85.67738858 518.81580417 -91.89570639 518.82638506 -98.11408871 518.84214991 C-104.09685374 518.85677792 -110.07957163 518.86039506 -116.06235695 518.85979652 C-118.60896979 518.86098026 -121.15558321 518.8654239 -123.70218468 518.87312889 C-127.25286537 518.88287035 -130.80331997 518.88007452 -134.35400391 518.87402344 C-135.94443764 518.8824527 -135.94443764 518.8824527 -137.56700134 518.89105225 C-139.01172821 518.88476051 -139.01172821 518.88476051 -140.48564148 518.87834167 C-141.74520928 518.87915883 -141.74520928 518.87915883 -143.03022289 518.87999249 C-145.05834961 518.63110352 -145.05834961 518.63110352 -147.05834961 516.63110352 C-146.74836669 507.7965903 -144.17736548 499.1767697 -142.05834961 490.63110352 C-141.60975586 488.81352539 -141.60975586 488.81352539 -141.15209961 486.95922852 C-139.63286023 480.85607722 -138.09123021 474.75906485 -136.53100586 468.66625977 C-132.95036468 454.60204906 -129.65669489 440.50320876 -126.55422974 426.32772827 C-123.79631775 413.74217402 -120.79395922 401.24315784 -117.60131836 388.76000977 C-114.722096 377.44368117 -112.25271721 366.04013543 -109.86499023 354.61157227 C-109.65938477 353.64864258 -109.4537793 352.68571289 -109.24194336 351.69360352 C-109.06203857 350.83895508 -108.88213379 349.98430664 -108.69677734 349.10375977 C-108.02467672 346.50068708 -107.05947757 344.12321953 -106.05834961 341.63110352 C-105.55170621 338.98375259 -105.09610261 336.35490045 -104.68334961 333.69360352 C-103.59524191 327.07994888 -102.0221031 320.80502044 -100.07275391 314.38525391 C-99.06519604 310.65644109 -98.40531545 307.00768891 -97.80444336 303.19360352 C-95.90502622 291.85070335 -92.96840331 280.76535844 -90.12084961 269.63110352 C-89.06779435 265.48584532 -88.01789597 261.3397909 -86.96850586 257.19360352 C-86.58838852 255.69434326 -86.58838852 255.69434326 -86.20059204 254.16479492 C-83.77935304 244.58782312 -81.50448772 234.98116636 -79.31103516 225.34960938 C-77.35562007 216.77668965 -75.2258672 208.25331374 -73.07290649 199.72842407 C-68.41273054 181.25827688 -63.96695501 162.74332903 -59.60995483 144.19970703 C-57.92076328 137.02208123 -56.17813097 129.85791551 -54.43334961 122.69360352 C-52.15628144 113.31679651 -49.97661285 103.92279588 -47.87084961 94.50610352 C-44.87570385 81.13589271 -41.7955566 67.78600313 -38.67440796 54.44464111 C-38.14415422 52.17561183 -37.61549462 49.90620934 -37.08853149 47.63641357 C-28.44415602 10.42581722 -28.44415602 10.42581722 -18.88120174 4.21774387 C-12.43160158 0.77830967 -7.25135271 -0.08692728 0 0 Z " fill="#EC1218" transform="translate(417.058349609375,387.368896484375)"/>
<path d="M0 0 C0.66 0 1.32 0 2 0 C3.16190276 48.18023447 -8.6424255 94.63499883 -24 140 C-24.32387695 140.96067383 -24.64775391 141.92134766 -24.98144531 142.91113281 C-28.24781214 152.55290043 -31.7436731 162.06027848 -35.6015625 171.48046875 C-37.00767149 175.0193073 -38.2641025 178.58607894 -39.5 182.1875 C-41.46251071 187.78475722 -43.87160814 192.95587077 -46.6015625 198.21484375 C-48.24297255 201.48390902 -49.55382958 204.81624655 -50.8671875 208.2265625 C-52.57553279 212.40906304 -54.51450003 216.4788955 -56.45092773 220.55981445 C-57.88529956 223.58757308 -59.28152951 226.62308901 -60.58984375 229.70703125 C-61.92294481 232.82006225 -63.38337959 235.8078672 -64.9375 238.8125 C-65.78030268 240.54768198 -66.55460896 242.31610575 -67.30371094 244.09375 C-69.1269663 248.36301078 -71.15688672 252.52156593 -73.203125 256.6875 C-73.6040033 257.50766602 -74.00488159 258.32783203 -74.41790771 259.17285156 C-75.69366978 261.78268846 -76.97160375 264.39145253 -78.25 267 C-88.49211824 287.82949167 -88.49211824 287.82949167 -98 309 C-98.96266824 311.17602098 -99.92893278 313.35045383 -100.8984375 315.5234375 C-121.0198396 360.7977144 -137.7358255 407.24770736 -151 455 C-151.32258789 456.1564502 -151.64517578 457.31290039 -151.97753906 458.50439453 C-155.06109625 469.61516811 -157.95777613 480.76520393 -160.72021484 491.95996094 C-170.0519906 529.76045141 -170.0519906 529.76045141 -185 545 C-185.81210937 545.84884766 -185.81210937 545.84884766 -186.640625 546.71484375 C-201.74580859 561.09528368 -222.00748291 561.45166292 -241.4921875 561.29296875 C-243.5348377 561.28736107 -245.57749199 561.28309653 -247.62014771 561.28010559 C-252.94988497 561.26874902 -258.27936997 561.23936277 -263.60900879 561.20599365 C-269.06612742 561.17509276 -274.52328752 561.16155781 -279.98046875 561.14648438 C-290.65375558 561.11448276 -301.32685667 561.06339997 -312 561 C-312.06636851 556.60679465 -311.6533665 553.19595149 -310.34375 548.9921875 C-308.52218465 542.88449173 -306.88449572 536.75479353 -305.34375 530.5703125 C-305.11260498 529.64369812 -304.88145996 528.71708374 -304.64331055 527.76239014 C-303.92701523 524.88371825 -303.21342028 522.00438559 -302.5 519.125 C-302.02235931 517.20437139 -301.54449585 515.28379817 -301.06640625 513.36328125 C-300.13653392 509.62697508 -299.20821102 505.8902892 -298.28100586 502.15332031 C-297.32721887 498.31164018 -296.36616408 494.47185714 -295.40098572 490.63302612 C-293.88436017 484.59735905 -292.40600615 478.55401448 -290.96484375 472.5 C-290.62695614 471.0846347 -290.28906552 469.66927011 -289.95117188 468.25390625 C-289.43976925 466.1110972 -288.9299498 463.96796644 -288.42456055 461.82373047 C-285.21626078 448.22934355 -285.21626078 448.22934355 -283.37890625 443.625 C-282.02636021 440.06929822 -281.29757817 436.78819862 -280.60791016 433.06640625 C-279.36732114 426.80865603 -277.78998263 420.62314652 -276.27856445 414.42626953 C-275.6957214 412.03374814 -275.11816502 409.63999408 -274.54101562 407.24609375 C-272.45310283 398.63521215 -270.22308423 390.08087074 -267.8203125 381.55255127 C-265.92100275 374.78783319 -264.20647189 367.98452274 -262.53216553 361.16088867 C-261.53957231 357.13040694 -260.52787131 353.10469006 -259.51953125 349.078125 C-259.07788751 347.31178626 -258.63631991 345.54542848 -258.19482422 343.77905273 C-257.24743451 339.98945155 -256.29981088 336.19990896 -255.35205078 332.41040039 C-252.90734098 322.63473731 -250.46501133 312.85849974 -248.03135681 303.08007812 C-246.57855999 297.24586775 -245.11328219 291.41484225 -243.64515686 285.58447266 C-242.49906404 281.02184899 -241.37815714 276.45366578 -240.27108765 271.88142395 C-239.50218649 268.71806496 -238.71970191 265.55815326 -237.93487549 262.39871216 C-237.57013991 260.91748332 -237.21108368 259.43484079 -236.85858154 257.95065308 C-231.10374782 233.75535478 -218.14986459 215.25820547 -197 202 C-191.41398558 198.8094322 -185.598239 196.09913753 -179.67578125 193.59375 C-165.52992421 187.57535926 -152.09361521 180.01330503 -139 172 C-138.31953613 171.5875 -137.63907227 171.175 -136.93798828 170.75 C-127.31314627 164.90707955 -118.06549146 158.67468228 -109 152 C-107.98292969 151.26007813 -106.96585938 150.52015625 -105.91796875 149.7578125 C-90.51929231 138.41566812 -75.23596375 125.75667731 -63 111 C-62.10395225 109.97446956 -61.20526257 108.95124455 -60.3046875 107.9296875 C-33.07102652 76.90938594 -11.82700593 39.59759996 0 0 Z " fill="#E70A1A" transform="translate(1005,345)"/>
<path d="M0 0 C0.99 0.33 1.98 0.66 3 1 C2.56131592 1.90242432 2.12263184 2.80484863 1.6706543 3.73461914 C0.03084306 7.10899309 -1.60683458 10.48439891 -3.24389648 13.86010742 C-3.95035332 15.31611544 -4.65737493 16.77184957 -5.36499023 18.22729492 C-6.38677124 20.32918269 -7.40646212 22.43207369 -8.42578125 24.53515625 C-8.73840408 25.17711441 -9.05102692 25.81907257 -9.37312317 26.48048401 C-11.36971583 30.60637347 -13.21161797 34.77838808 -15 39 C-15.96266824 41.17602098 -16.92893278 43.35045383 -17.8984375 45.5234375 C-38.0198396 90.7977144 -54.7358255 137.24770736 -68 185 C-68.32258789 186.1564502 -68.64517578 187.31290039 -68.97753906 188.50439453 C-72.06109625 199.61516811 -74.95777613 210.76520393 -77.72021484 221.95996094 C-87.0519906 259.76045141 -87.0519906 259.76045141 -102 275 C-102.54140625 275.56589844 -103.0828125 276.13179687 -103.640625 276.71484375 C-118.74580859 291.09528368 -139.00748291 291.45166292 -158.4921875 291.29296875 C-160.5348377 291.28736107 -162.57749199 291.28309653 -164.62014771 291.28010559 C-169.94988497 291.26874902 -175.27936997 291.23936277 -180.60900879 291.20599365 C-186.06612742 291.17509276 -191.52328752 291.16155781 -196.98046875 291.14648438 C-207.65375558 291.11448276 -218.32685667 291.06339997 -229 291 C-229.06636851 286.60679465 -228.6533665 283.19595149 -227.34375 278.9921875 C-225.52218465 272.88449173 -223.88449572 266.75479353 -222.34375 260.5703125 C-222.11260498 259.64369812 -221.88145996 258.71708374 -221.64331055 257.76239014 C-220.92701523 254.88371825 -220.21342028 252.00438559 -219.5 249.125 C-219.02235931 247.20437139 -218.54449585 245.28379817 -218.06640625 243.36328125 C-217.1363862 239.62630035 -216.20778421 235.88897163 -215.28027344 232.15136719 C-214.32876676 228.31905185 -213.37158723 224.48820719 -212.41046143 220.65829468 C-210.14205067 211.61709799 -207.93999608 202.56045339 -205.75 193.5 C-205.3828673 191.98305965 -205.01568001 190.46613252 -204.6484375 188.94921875 C-203.76499971 185.29963026 -202.88228663 181.64986698 -202 178 C-201.505 178.99 -201.505 178.99 -201 180 C-185.94518618 174.28955338 -171.75856547 167.38683336 -158 159 C-157.4131543 158.64744141 -156.82630859 158.29488281 -156.22167969 157.93164062 C-132.74631723 143.80508901 -111.8148759 126.63139829 -91.5390625 108.28515625 C-89.96083798 106.86475418 -88.37380405 105.45400107 -86.7734375 104.05859375 C-80.90019177 98.90184363 -75.3473238 93.45382206 -69.8125 87.9375 C-69.05195312 87.18154541 -68.29140625 86.42559082 -67.5078125 85.64672852 C-63.3520244 81.4796081 -59.36149624 77.22599178 -55.52124023 72.76635742 C-53.598522 70.53383192 -51.61289973 68.36200334 -49.625 66.1875 C-44.89786148 60.93600662 -40.39674257 55.52971305 -36 50 C-35.46149414 49.32340332 -34.92298828 48.64680664 -34.36816406 47.94970703 C-27.68164011 39.52039919 -21.15009629 31.132111 -15.453125 21.9921875 C-14.97359375 21.33476563 -14.4940625 20.67734375 -14 20 C-13.34 20 -12.68 20 -12 20 C-11.76410156 19.31292969 -11.52820313 18.62585938 -11.28515625 17.91796875 C-9.7385668 14.40641156 -7.6617416 11.41519405 -5.4375 8.3125 C-2.5019847 4.29029545 -2.5019847 4.29029545 0 0 Z " fill="#FB1820" transform="translate(922,615)"/>
<path d="M0 0 C1.03125 0.7425 2.0625 1.485 3.125 2.25 C13.01094186 11.70611831 19.07275066 24.13159083 19.66259766 37.78393555 C19.80853361 53.70096963 15.37064158 66.82935853 5 79 C-0.85981435 84.75717429 -7.44257364 88.84310038 -15 92 C-15.7321875 92.3196875 -16.464375 92.639375 -17.21875 92.96875 C-29.79917327 97.62178326 -45.85497924 96.07268131 -57.89453125 90.7109375 C-71.42742093 83.78713348 -81.28332477 72.74031718 -86.0625 58.25 C-90.19013122 44.3205082 -89.05843822 30.37129493 -82.6796875 17.29296875 C-75.03235425 3.69074486 -63.72145044 -5.65184799 -49 -10.68359375 C-31.23991229 -15.56089056 -14.48246744 -10.47024686 0 0 Z " fill="#FC1018" transform="translate(894,379)"/>
<path d="M0 0 C0.66 0 1.32 0 2 0 C2.22550537 1.00244751 2.22550537 1.00244751 2.45556641 2.02514648 C6.17725907 18.55662618 6.17725907 18.55662618 11.125 34.75 C11.46845459 35.7563147 11.46845459 35.7563147 11.81884766 36.78295898 C13.59017595 41.63936117 15.57860567 45.75236631 20.3046875 48.1875 C21.15289063 48.455625 22.00109375 48.72375 22.875 49 C24.33679687 49.47953125 24.33679687 49.47953125 25.828125 49.96875 C26.87484375 50.3090625 27.9215625 50.649375 29 51 C31.20873209 51.83227586 33.41704739 52.66565846 35.625 53.5 C43.59180205 56.35919674 51.73720651 58.20939463 60 60 C59 62 59 62 57.22851562 62.59082031 C56.46216797 62.75163086 55.69582031 62.91244141 54.90625 63.078125 C54.04845947 63.26640869 53.19066895 63.45469238 52.30688477 63.64868164 C51.38061279 63.8471167 50.45434082 64.04555176 49.5 64.25 C42.39227372 65.85845956 35.440784 67.64522156 28.5625 70.0625 C27.88445312 70.29549805 27.20640625 70.52849609 26.5078125 70.76855469 C21.44446974 72.60490787 16.59273218 74.60666574 13.53125 79.20703125 C9.9769115 88.18712133 7.66232051 97.4433802 5.33203125 106.8046875 C4.38167572 110.60204538 3.31943029 114.31059776 2 118 C1.34 118 0.68 118 0 118 C-0.21914063 116.98164063 -0.43828125 115.96328125 -0.6640625 114.9140625 C-2.43613404 106.91826959 -4.47357797 99.08573434 -7.0625 91.3125 C-7.30758301 90.5714502 -7.55266602 89.83040039 -7.80517578 89.06689453 C-8.49998019 87.02895653 -9.24215786 85.01518297 -10 83 C-10.36996094 81.94167969 -10.73992188 80.88335937 -11.12109375 79.79296875 C-15.92693958 72.64914387 -25.37846531 70.6780058 -33.25 68.4375 C-35.27737482 67.84125148 -37.30471874 67.24489787 -39.33203125 66.6484375 C-40.30221191 66.36709961 -41.27239258 66.08576172 -42.27197266 65.79589844 C-45.83921546 64.75515998 -49.38842217 63.66353405 -52.9375 62.5625 C-53.93652344 62.25441406 -54.93554688 61.94632812 -55.96484375 61.62890625 C-56.63644531 61.42136719 -57.30804687 61.21382813 -58 61 C-52.97885098 58.29630437 -47.80555358 56.90627427 -42.23974609 55.76025391 C-25.87544518 52.55402146 -25.87544518 52.55402146 -12.65625 43.2421875 C-5.52946497 30.27018844 -3.13858058 14.33727184 0 0 Z " fill="#FA151E" transform="translate(1019,225)"/>
<path d="M0 0 C0.33 0 0.66 0 1 0 C2.16101044 5.64975783 1.67875069 9.72193621 0.1875 15.25 C-0.190909 16.74556223 -0.56721011 18.24165938 -0.94140625 19.73828125 C-1.12461426 20.46225098 -1.30782227 21.1862207 -1.49658203 21.93212891 C-3.34061099 29.38343748 -3.34061099 29.38343748 -4 37 C10.62185972 37.11728028 25.24365642 37.20520531 39.86589241 37.25906086 C46.65668677 37.28474193 53.44718732 37.31969626 60.23779297 37.37719727 C66.79950716 37.43273315 73.36103169 37.46147987 79.92296982 37.47438622 C82.41784319 37.48357582 84.91270122 37.50152022 87.407444 37.52865028 C107.84333323 38.26743563 107.84333323 38.26743563 126.16287231 30.3339386 C128 29 128 29 131 29 C131 28.34 131 27.68 131 27 C132.98 26.505 132.98 26.505 135 26 C126.552594 35.23935031 115.88105095 39.78004308 103.40518188 40.36175537 C96.48510835 40.54704598 89.56625242 40.50366154 82.64453125 40.4609375 C80.08957513 40.45855026 77.53461722 40.45764835 74.97966003 40.4581604 C69.6516013 40.45504625 64.32382041 40.43907141 58.99584961 40.41162109 C52.83633211 40.380004 46.67706485 40.36963158 40.51747209 40.3710922 C34.57311233 40.37231128 28.62882444 40.36190612 22.68448448 40.34550858 C20.16020893 40.33913382 17.63592601 40.3352001 15.11164284 40.33372116 C11.60009674 40.32940617 8.08887044 40.31194957 4.57739258 40.29052734 C3.00581139 40.2918869 3.00581139 40.2918869 1.40248108 40.29327393 C0.45089111 40.28474396 -0.50069885 40.27621399 -1.48112488 40.26742554 C-2.3104462 40.26407385 -3.13976751 40.26072216 -3.99421978 40.25726891 C-6 40 -6 40 -8 38 C-7.69015193 29.16933009 -5.11725259 20.54078162 -3 12 C-2.53980469 10.13601563 -2.53980469 10.13601563 -2.0703125 8.234375 C-1.38692758 5.48781846 -0.69763302 2.74296619 0 0 Z " fill="#AF1B2C" transform="translate(278,866)"/>
<path d="M0 0 C0.33 0 0.66 0 1 0 C0.33437203 9.21638731 -2.1519164 17.94141953 -4.48608398 26.84179688 C-6.83947571 35.8534362 -8.79973801 44.74396137 -10 54 C-10.66 54 -11.32 54 -12 54 C-12.06058594 54.77085937 -12.12117187 55.54171875 -12.18359375 56.3359375 C-12.26738281 57.33882812 -12.35117187 58.34171875 -12.4375 59.375 C-12.51871094 60.37273438 -12.59992187 61.37046875 -12.68359375 62.3984375 C-13 65 -13 65 -14 67 C-17.76867646 66.44848637 -19.34591504 64.9602745 -21.8125 62.125 C-22.43769531 61.42632813 -23.06289063 60.72765625 -23.70703125 60.0078125 C-24.13371094 59.34523438 -24.56039062 58.68265625 -25 58 C-24.67 57.01 -24.34 56.02 -24 55 C-19 60.75 -19 60.75 -19 63 C-17.68 63 -16.36 63 -15 63 C-14.96261719 62.42894531 -14.92523437 61.85789062 -14.88671875 61.26953125 C-14.29555274 53.97848384 -12.73539582 47.09381098 -11 40 C-10.3073492 37.06370386 -9.62334071 34.12539336 -8.9375 31.1875 C-7.6717579 25.77932922 -6.35706202 20.38602837 -5 15 C-4.34 15 -3.68 15 -3 15 C-2.67 11.04 -2.34 7.08 -2 3 C-1.34 3 -0.68 3 0 3 C0 2.01 0 1.02 0 0 Z " fill="#CE0815" transform="translate(704,790)"/>
<path d="M0 0 C0.99 0.495 0.99 0.495 2 1 C-11.52952898 12.8554206 -23.7422678 13.70726175 -41 13.375 C-42.9439927 13.35844571 -44.88800559 13.34411 -46.83203125 13.33203125 C-59.23973551 13.22487949 -71.6135815 12.71394882 -84 12 C-84 11.67 -84 11.34 -84 11 C-83.26687592 11.01110306 -82.53375183 11.02220612 -81.77841187 11.03364563 C-74.80740854 11.13459309 -67.83666607 11.21033796 -60.86513329 11.25906086 C-57.28248833 11.28495386 -53.70045636 11.31996885 -50.11816406 11.37719727 C-46.64917774 11.43225718 -43.18077399 11.46157229 -39.71138382 11.47438622 C-37.7695821 11.48787391 -35.82800888 11.52678364 -33.88656616 11.56648254 C-24.44928324 11.56940339 -14.55988799 10.19494652 -6.7918396 4.3339386 C-5 3 -5 3 -2 3 C-2 2.34 -2 1.68 -2 1 C-1.34 0.67 -0.68 0.34 0 0 Z " fill="#A7071C" transform="translate(411,892)"/>
<path d="M0 0 C0.33 1.32 0.66 2.64 1 4 C1.66 4 2.32 4 3 4 C1.65424299 11.05887639 -0.25565292 17.96716327 -2.625 24.75 C-3.92252427 28.50741404 -4.5079882 32.06390562 -5 36 C-5.495 36.495 -5.495 36.495 -6 37 C-4.58194169 36.71517632 -3.16559621 36.42181856 -1.75 36.125 C-0.56664062 35.88136719 -0.56664062 35.88136719 0.640625 35.6328125 C2.96831144 35.00849925 4.89031952 34.15161458 7 33 C7.33 33.66 7.66 34.32 8 35 C5.73192796 36.0067004 3.46092246 37.00551766 1.1875 38 C0.54490234 38.28617188 -0.09769531 38.57234375 -0.75976562 38.8671875 C-3.67756469 40.13711041 -5.78265714 41 -9 41 C-8.42080572 35.70534526 -7.53673955 30.72831357 -6.1875 25.5625 C-5.83091851 24.17867167 -5.47549223 22.79454526 -5.12109375 21.41015625 C-4.93788574 20.69617676 -4.75467773 19.98219727 -4.56591797 19.24658203 C-3.58227644 15.34172035 -2.66621507 11.42113553 -1.75 7.5 C-1.5749292 6.75177979 -1.3998584 6.00355957 -1.21948242 5.23266602 C-0.81203647 3.48866611 -0.40586777 1.74436786 0 0 Z " fill="#B01A2A" transform="translate(730,754)"/>
<path d="M0 0 C0.33 0 0.66 0 1 0 C2.16970109 5.67714797 1.67346335 9.81389472 0.1875 15.375 C-0.19474506 16.87741745 -0.57626279 18.38002015 -0.95703125 19.8828125 C-1.14088379 20.59469727 -1.32473633 21.30658203 -1.51416016 22.04003906 C-2.10589206 24.42718667 -2.5562001 26.8314941 -3 29.25 C-4.02891713 33.10843922 -5.24528952 35.15346584 -8 38 C-7.35323645 29.10700122 -5.13872981 20.62741854 -3 12 C-2.53980469 10.13601563 -2.53980469 10.13601563 -2.0703125 8.234375 C-1.38692758 5.48781846 -0.69763302 2.74296619 0 0 Z " fill="#BF283A" transform="translate(278,866)"/>
<path d="M0 0 C0.99 0.66 1.98 1.32 3 2 C2.67 4.97 2.34 7.94 2 11 C1.34 11 0.68 11 0 11 C-0.06058594 11.77085937 -0.12117187 12.54171875 -0.18359375 13.3359375 C-0.26738281 14.33882812 -0.35117187 15.34171875 -0.4375 16.375 C-0.51871094 17.37273438 -0.59992187 18.37046875 -0.68359375 19.3984375 C-1 22 -1 22 -2 24 C-5.76867646 23.44848637 -7.34591504 21.9602745 -9.8125 19.125 C-10.43769531 18.42632813 -11.06289063 17.72765625 -11.70703125 17.0078125 C-12.13371094 16.34523438 -12.56039062 15.68265625 -13 15 C-12.67 14.01 -12.34 13.02 -12 12 C-7 17.75 -7 17.75 -7 20 C-5.68 20 -4.36 20 -3 20 C-2.95101562 19.39414062 -2.90203125 18.78828125 -2.8515625 18.1640625 C-2.3017522 12.00239536 -1.32390951 6.04114049 0 0 Z " fill="#CA2333" transform="translate(692,833)"/>
<path d="M0 0 C0.66 0.99 1.32 1.98 2 3 C1.34773437 3.7734375 0.69546875 4.546875 0.0234375 5.34375 C-0.85973042 6.395535 -1.74251723 7.44764008 -2.625 8.5 C-3.08213379 9.04374268 -3.53926758 9.58748535 -4.01025391 10.14770508 C-7.08590681 13.83098166 -9.96198081 17.59397771 -12.6484375 21.57421875 C-14 23 -14 23 -16.1015625 23.51953125 C-16.72804688 23.67808594 -17.35453125 23.83664062 -18 24 C-18.33 24.99 -18.66 25.98 -19 27 C-19.99 26.67 -20.98 26.34 -22 26 C-21.52691406 25.55011719 -21.05382812 25.10023438 -20.56640625 24.63671875 C-12.84727319 17.12824429 -6.10571091 8.86312874 0 0 Z " fill="#FB191E" transform="translate(958,436)"/>
<path d="M0 0 C0.15082031 0.60972656 0.30164063 1.21945312 0.45703125 1.84765625 C0.84447942 3.38351194 1.25751457 4.91300621 1.6875 6.4375 C2.07379492 9.60511836 1.1950176 11.05201233 0 14 C-0.57805624 16.26184389 -1.11856671 18.53355021 -1.625 20.8125 C-1.88539063 21.97394531 -2.14578125 23.13539063 -2.4140625 24.33203125 C-2.60742188 25.21246094 -2.80078125 26.09289062 -3 27 C-3.66 27 -4.32 27 -5 27 C-5.33 28.98 -5.66 30.96 -6 33 C-7.44815005 29.12147638 -6.55078902 26.20315607 -5.56640625 22.265625 C-5.40961899 21.62759949 -5.25283173 20.98957397 -5.09129333 20.33221436 C-4.59040132 18.30253144 -4.07666121 16.27635765 -3.5625 14.25 C-3.21984961 12.8713056 -2.87804301 11.49240119 -2.53710938 10.11328125 C-1.70116994 6.73969906 -0.85368061 3.36914214 0 0 Z " fill="#C63142" transform="translate(292,808)"/>
<path d="M0 0 C0.33 0 0.66 0 1 0 C1.8103835 6.3551127 -1.04759524 11.20096102 -3.75 16.75 C-4.1934375 17.70777344 -4.636875 18.66554688 -5.09375 19.65234375 C-5.53203125 20.56628906 -5.9703125 21.48023438 -6.421875 22.421875 C-7.01887207 23.66855957 -7.01887207 23.66855957 -7.62792969 24.94042969 C-9.18103962 27.27175271 -10.42032554 27.9985438 -13 29 C-11.67625174 25.60408387 -10.23433435 22.30659891 -8.65234375 19.0234375 C-8.21212891 18.105625 -7.77191406 17.1878125 -7.31835938 16.2421875 C-6.39399684 14.32286049 -5.46951672 12.40359011 -4.54492188 10.484375 C-4.10599609 9.56914062 -3.66707031 8.65390625 -3.21484375 7.7109375 C-2.81386475 6.87868652 -2.41288574 6.04643555 -1.99975586 5.18896484 C-0.90787281 2.90108491 -0.90787281 2.90108491 0 0 Z " fill="#FB1B23" transform="translate(995,372)"/>
<path d="M0 0 C0.33 0.66 0.66 1.32 1 2 C1.66 2.33 2.32 2.66 3 3 C2.79503906 3.75603516 2.79503906 3.75603516 2.5859375 4.52734375 C2.11217565 6.52661875 1.71910791 8.54490651 1.3515625 10.56640625 C1.23296875 11.21673828 1.114375 11.86707031 0.9921875 12.53710938 C0.74695424 13.88980562 0.50999628 15.24402772 0.28125 16.59960938 C-0.40168189 20.25765411 -0.92939095 22.72706313 -4 25 C-5.11991797 21.63684208 -4.85748516 19.42994063 -4.00390625 16.015625 C-3.77509766 15.08105469 -3.54628906 14.14648438 -3.31054688 13.18359375 C-3.06369141 12.21550781 -2.81683594 11.24742187 -2.5625 10.25 C-2.19801758 8.77466797 -2.19801758 8.77466797 -1.82617188 7.26953125 C-1.22571669 4.84416327 -0.61673274 2.42127055 0 0 Z " fill="#BB2637" transform="translate(284,841)"/>
<path d="M0 0 C0.66 0.33 1.32 0.66 2 1 C2 1.66 2 2.32 2 3 C18.83 3 35.66 3 53 3 C53 3.33 53 3.66 53 4 C35.18 4.33 17.36 4.66 -1 5 C-0.67 3.35 -0.34 1.7 0 0 Z " fill="#AB0C26" transform="translate(272,900)"/>
<path d="M0 0 C1.16180608 3.92759816 0.75984959 6.97279717 0 11 C-0.33 11.33 -0.66 11.66 -1 12 C0.41805831 11.71517632 1.83440379 11.42181856 3.25 11.125 C4.43335938 10.88136719 4.43335938 10.88136719 5.640625 10.6328125 C7.96831144 10.00849925 9.89031952 9.15161458 12 8 C12.33 8.66 12.66 9.32 13 10 C10.73192796 11.0067004 8.46092246 12.00551766 6.1875 13 C5.54490234 13.28617188 4.90230469 13.57234375 4.24023438 13.8671875 C1.32243531 15.13711041 -0.78265714 16 -4 16 C-3.47606294 10.13190493 -2.23891142 5.45126259 0 0 Z " fill="#AC0B1C" transform="translate(725,779)"/>
<path d="M0 0 C2 2 2 2 2.01171875 3.91015625 C1.11111111 9.88888889 1.11111111 9.88888889 0 11 C-0.15582303 12.34015221 -0.25044142 13.68758903 -0.31640625 15.03515625 C-0.37924805 16.24848633 -0.37924805 16.24848633 -0.44335938 17.48632812 C-0.48267578 18.33646484 -0.52199219 19.18660156 -0.5625 20.0625 C-0.60568359 20.91650391 -0.64886719 21.77050781 -0.69335938 22.65039062 C-0.79976702 24.76672037 -0.90041731 26.88333813 -1 29 C-1.66 28.67 -2.32 28.34 -3 28 C-3.31042285 18.19293733 -3.39925415 9.36818258 0 0 Z " fill="#FB1F25" transform="translate(809,401)"/>
<path d="M0 0 C0.66 0.33 1.32 0.66 2 1 C-1.57312988 5.66491957 -5.4763811 9.41180313 -10.125 13 C-11.13820313 13.78375 -12.15140625 14.5675 -13.1953125 15.375 C-16 17 -16 17 -18.3671875 16.75 C-18.90601563 16.5025 -19.44484375 16.255 -20 16 C-19.14277344 15.34773438 -18.28554688 14.69546875 -17.40234375 14.0234375 C-11.46677723 9.49176904 -5.59890079 4.94786582 0 0 Z " fill="#FD1E23" transform="translate(915,482)"/>
<path d="M0 0 C0.33 0 0.66 0 1 0 C2.45446377 7.99955075 1.35525932 14.57049722 -2 22 C-2.99 22 -3.98 22 -5 22 C-4.26861959 17.11899811 -3.15925104 12.39975848 -1.9375 7.625 C-1.75123047 6.88894531 -1.56496094 6.15289063 -1.37304688 5.39453125 C-0.91752543 3.59580556 -0.4590645 1.79782471 0 0 Z " fill="#C31423" transform="translate(743,704)"/>
<path d="M0 0 C0.66 0 1.32 0 2 0 C2.02938023 4.12498468 2.04692535 8.24994191 2.0625 12.375 C2.07087891 13.53128906 2.07925781 14.68757813 2.08789062 15.87890625 C2.10702932 22.65400559 1.85222001 29.27639726 1 36 C-0.94834163 32.41460738 -1.24250511 29.91788103 -1.1875 25.8125 C-1.18105469 24.74644531 -1.17460938 23.68039062 -1.16796875 22.58203125 C-1 20 -1 20 0 19 C0.08651611 17.58429877 0.10704904 16.164405 0.09765625 14.74609375 C0.09443359 13.89208984 0.09121094 13.03808594 0.08789062 12.15820312 C0.07951172 11.26037109 0.07113281 10.36253906 0.0625 9.4375 C0.05573242 8.08495117 0.05573242 8.08495117 0.04882812 6.70507812 C0.03700225 4.46998686 0.0205222 2.23502563 0 0 Z " fill="#FA5157" transform="translate(1005,345)"/>
<path d="M0 0 C0.66 0.33 1.32 0.66 2 1 C-5.04630495 7.17441368 -13.32395158 13 -23 13 C-23 12.34 -23 11.68 -23 11 C-21.55367188 10.51080078 -21.55367188 10.51080078 -20.078125 10.01171875 C-18.80195323 9.5706888 -17.52591871 9.12926154 -16.25 8.6875 C-15.61578125 8.47416016 -14.9815625 8.26082031 -14.328125 8.04101562 C-10.71661551 6.78074929 -8.01206706 5.31332177 -5 3 C-4.01 3 -3.02 3 -2 3 C-2 2.34 -2 1.68 -2 1 C-1.34 0.67 -0.68 0.34 0 0 Z " fill="#B61427" transform="translate(411,892)"/>
<path d="M0 0 C0.99 0 1.98 0 3 0 C1.9611908 6.1112924 0.84269722 12.07704464 -1 18 C-3.62961522 14.05557717 -2.90125177 12.58136315 -2 8 C-1.37663421 5.3190584 -0.70066138 2.66251323 0 0 Z " fill="#FC2428" transform="translate(348,571)"/>
<path d="M0 0 C0.33 0 0.66 0 1 0 C2.15769128 5.59914837 1.7101036 9.50414056 0.0625 14.9375 C-0.13279297 15.62134766 -0.32808594 16.30519531 -0.52929688 17.00976562 C-1.00724325 18.67674933 -1.50189253 20.33892915 -2 22 C-2.33 22 -2.66 22 -3 22 C-3.46530864 14.21038876 -2.15721701 7.47321608 0 0 Z " fill="#BB2637" transform="translate(278,866)"/>
<path d="M0 0 C-1.15029396 3.45088187 -2.65880863 4.3409468 -5.43359375 6.52734375 C-8.03259412 8.97079298 -9.38868576 11.83934514 -11 15 C-11.66 14.67 -12.32 14.34 -13 14 C-11.41437766 8.76744627 -6.17989699 0 0 0 Z " fill="#FB2C28" transform="translate(401,391)"/>
<path d="M0 0 C0.66 0 1.32 0 2 0 C1.31507146 5.77296908 0.46056894 11.36637694 -1 17 C-1.66 17 -2.32 17 -3 17 C-3.33 17.99 -3.66 18.98 -4 20 C-3.21085905 13.21338787 -1.58725189 6.63850633 0 0 Z " fill="#E93C43" transform="translate(323,674)"/>
<path d="M0 0 C1.06699884 3.26403585 0.9059117 5.38380113 0.07421875 8.6953125 C-0.14556641 9.57574219 -0.36535156 10.45617187 -0.59179688 11.36328125 C-0.82962891 12.27464844 -1.06746094 13.18601562 -1.3125 14.125 C-1.53873047 15.04410156 -1.76496094 15.96320312 -1.99804688 16.91015625 C-3.73745382 23.73745382 -3.73745382 23.73745382 -6 26 C-5.59768867 20.05002724 -5.19047757 14.59788713 -3 9 C-2.45188924 7.37716225 -1.91059951 5.75200982 -1.375 4.125 C-0.91666667 2.75 -0.45833333 1.375 0 0 Z " fill="#D70914" transform="translate(457,749)"/>
<path d="M0 0 C0.66 0 1.32 0 2 0 C1.88597936 2.27141109 1.75841495 4.54214552 1.625 6.8125 C1.55539062 8.07707031 1.48578125 9.34164062 1.4140625 10.64453125 C1 14 1 14 -1 17 C-1.66 16.67 -2.32 16.34 -3 16 C-2.30834212 10.58201328 -1.24200752 5.3177215 0 0 Z " fill="#E0323B" transform="translate(315,709)"/>
<path d="M0 0 C0.66 0.33 1.32 0.66 2 1 C-7.09801136 10.35795455 -7.09801136 10.35795455 -14 11 C-11.14325205 7.98306057 -8.17651069 5.59445469 -4.75 3.25 C-3.85796875 2.63640625 -2.9659375 2.0228125 -2.046875 1.390625 C-1.03367187 0.70226562 -1.03367187 0.70226562 0 0 Z " fill="#FC2328" transform="translate(893,499)"/>
<path d="M0 0 C0.33 0 0.66 0 1 0 C1.8945814 5.44002201 2.55953838 9.88092325 0 15 C-0.99 15.33 -1.98 15.66 -3 16 C-2.152874 10.63486869 -1.08318169 5.3212615 0 0 Z " fill="#C13344" transform="translate(737,726)"/>
<path d="M0 0 C4.875 4.625 4.875 4.625 6 8 C7.65 7.67 9.3 7.34 11 7 C11 8.65 11 10.3 11 12 C7.23254152 11.44988438 5.69390636 9.97622408 3.25 7.125 C2.63640625 6.42632813 2.0228125 5.72765625 1.390625 5.0078125 C0 3 0 3 0 0 Z " fill="#BC0B19" transform="translate(679,845)"/>
<path d="M0 0 C0.99 0.66 1.98 1.32 3 2 C-1.78521127 8.24735915 -1.78521127 8.24735915 -6 9 C-6.33 9.99 -6.66 10.98 -7 12 C-7.99 11.67 -8.98 11.34 -10 11 C-9.44570313 10.45730469 -8.89140625 9.91460937 -8.3203125 9.35546875 C-7.23363281 8.28232422 -7.23363281 8.28232422 -6.125 7.1875 C-5.40570312 6.47980469 -4.68640625 5.77210938 -3.9453125 5.04296875 C-1.84641063 2.95600806 -1.84641063 2.95600806 0 0 Z " fill="#FD2629" transform="translate(946,451)"/>
<path d="M0 0 C0.66 0 1.32 0 2 0 C2.28307925 7.24997422 1.50974035 13.90961228 0 21 C-0.33 21 -0.66 21 -1 21 C-1.18451025 6.21867882 -1.18451025 6.21867882 0 0 Z " fill="#FB383D" transform="translate(1003,381)"/>
<path d="M0 0 C2.41486943 2.41486943 2.2961925 3.12707789 2.3125 6.4375 C2.32925781 7.21996094 2.34601562 8.00242187 2.36328125 8.80859375 C1.92353251 11.46127163 1.04371546 12.322967 -1 14 C-2.12029814 8.51053913 -1.79217969 5.16569441 0 0 Z " fill="#CB1D2F" transform="translate(751,673)"/>
<path d="M0 0 C4.87072783 4.56630734 8.89156398 9.74976539 13 15 C12.01 15.33 11.02 15.66 10 16 C6 11.375 6 11.375 6 8 C5.34 8 4.68 8 4 8 C0 2.58823529 0 2.58823529 0 0 Z " fill="#FC1B1D" transform="translate(702,621)"/>
<path d="M0 0 C0.66 0.33 1.32 0.66 2 1 C-1.42388092 4.82669043 -4.00724943 6.72278474 -9 8 C-9.66 7.34 -10.32 6.68 -11 6 C-9.21385682 4.96953278 -7.42089982 3.95086764 -5.625 2.9375 C-4.62726562 2.36902344 -3.62953125 1.80054688 -2.6015625 1.21484375 C-1.74304688 0.81394531 -0.88453125 0.41304687 0 0 Z " fill="#FC262C" transform="translate(850,526)"/>
<path d="M0 0 C0.33 0.99 0.66 1.98 1 3 C1.66 3.33 2.32 3.66 3 4 C2 7 1 10 0 13 C-0.99 13.33 -1.98 13.66 -3 14 C-2.28547412 9.23649415 -1.20465156 4.65798604 0 0 Z " fill="#B22736" transform="translate(727,767)"/>
<path d="M0 0 C0.66 0.33 1.32 0.66 2 1 C1.58846263 5.97093824 1.20399168 10.44508386 -1 15 C-1.66 15 -2.32 15 -3 15 C-2.69052329 13.06201479 -2.37731166 11.12462574 -2.0625 9.1875 C-1.88847656 8.10855469 -1.71445312 7.02960938 -1.53515625 5.91796875 C-1 3 -1 3 0 0 Z " fill="#FB2823" transform="translate(366,496)"/>
<path d="M0 0 C1.43836751 0.11458693 2.87570966 0.24209116 4.3125 0.375 C5.51326172 0.47941406 5.51326172 0.47941406 6.73828125 0.5859375 C9 1 9 1 12 3 C7.88351155 3.89005156 4.21974316 4 0 4 C0 2.68 0 1.36 0 0 Z " fill="#F6202B" transform="translate(1067,283)"/>
<path d="M0 0 C0.33 0 0.66 0 1 0 C1.05447047 1.41623216 1.09300508 2.83308191 1.125 4.25 C1.14820313 5.03890625 1.17140625 5.8278125 1.1953125 6.640625 C0.9828378 9.20731941 0.28654105 10.7916067 -1 13 C-1.66 13 -2.32 13 -3 13 C-2.69240822 11.02006459 -2.3787932 9.04106401 -2.0625 7.0625 C-1.88847656 5.96035156 -1.71445312 4.85820313 -1.53515625 3.72265625 C-1 1 -1 1 0 0 Z " fill="#FA2324" transform="translate(358,532)"/>
<path d="M0 0 C0.33 0.99 0.66 1.98 1 3 C-2.44069624 5.29379749 -3.72290301 6 -8 6 C-8.33 6.99 -8.66 7.98 -9 9 C-9.99 8.34 -10.98 7.68 -12 7 C-8.04 4.69 -4.08 2.38 0 0 Z " fill="#FD292E" transform="translate(873,513)"/>
<path d="M0 0 C0.66 0.66 1.32 1.32 2 2 C0.75803878 3.15454162 -0.49392845 4.29832562 -1.75 5.4375 C-2.79414062 6.39462891 -2.79414062 6.39462891 -3.859375 7.37109375 C-5.98792725 8.99081325 -7.39023405 9.58267256 -10 10 C-6.92118304 6.12948725 -3.99926986 2.97088618 0 0 Z " fill="#FC2024" transform="translate(930,469)"/>
<path d="M0 0 C1.45606519 4.52092968 0.27032841 7.51648796 -1 12 C-1.66 12 -2.32 12 -3 12 C-3.33 12.66 -3.66 13.32 -4 14 C-3 5.42857143 -3 5.42857143 -2 2 C-1.34 2 -0.68 2 0 2 C0 1.34 0 0.68 0 0 Z " fill="#F7323D" transform="translate(706,855)"/>
<path d="M0 0 C0.66 0.66 1.32 1.32 2 2 C-1.3 4.97 -4.6 7.94 -8 11 C-8.66 10.34 -9.32 9.68 -10 9 C-6.7 6.03 -3.4 3.06 0 0 Z " fill="#F92027" transform="translate(799,553)"/>
<path d="M0 0 C3.63559661 3.43361902 6.36113346 6.7973607 9 11 C8.01 11 7.02 11 6 11 C4.17578125 9.03125 4.17578125 9.03125 2.3125 6.5 C1.68988281 5.6646875 1.06726563 4.829375 0.42578125 3.96875 C-0.04472656 3.3190625 -0.51523437 2.669375 -1 2 C-0.67 1.34 -0.34 0.68 0 0 Z " fill="#FC2B28" transform="translate(657,561)"/>
<path d="M0 0 C1.32 0.66 2.64 1.32 4 2 C-1.445 4.475 -1.445 4.475 -7 7 C-7.66 6.34 -8.32 5.68 -9 5 C-7.59546357 4.10565843 -6.17578131 3.23506808 -4.75 2.375 C-3.96109375 1.88773438 -3.1721875 1.40046875 -2.359375 0.8984375 C-1.19148437 0.45371094 -1.19148437 0.45371094 0 0 Z " fill="#FD242B" transform="translate(812,545)"/>
<path d="M0 0 C0.99 0 1.98 0 3 0 C3 1.32 3 2.64 3 4 C5.31 3.34 7.62 2.68 10 2 C10 2.66 10 3.32 10 4 C8.42085985 4.53341184 6.83645613 5.05125763 5.25 5.5625 C4.36828125 5.85253906 3.4865625 6.14257812 2.578125 6.44140625 C-0.07834316 7.01697435 -1.47031106 6.89248371 -4 6 C-2.68 5.34 -1.36 4.68 0 4 C0 3.01 0 2.02 0 1 C0 0.67 0 0.34 0 0 Z " fill="#F80813" transform="translate(1064,283)"/>
<path d="M0 0 C2.83333333 4.25 2.83333333 4.25 3 7 C1.0625 9.25 1.0625 9.25 -1 11 C-2.26264601 6.70700357 -1.62950412 4.12168689 0 0 Z " fill="#BD2534" transform="translate(740,716)"/>
<path d="M0 0 C0.66 0.33 1.32 0.66 2 1 C1.53199289 5.05606165 1.12046792 8.46588679 -1 12 C-1.66 12 -2.32 12 -3 12 C-2.49202991 7.6822542 -1.80317221 3.96697886 0 0 Z " fill="#F81C21" transform="translate(339,611)"/>
<path d="M0 0 C3.63559661 3.43361902 6.36113346 6.7973607 9 11 C8.01 11 7.02 11 6 11 C3 7.66666667 3 7.66666667 3 5 C2.34 5 1.68 5 1 5 C0.67 3.35 0.34 1.7 0 0 Z " fill="#FC1C1B" transform="translate(666,573)"/>
<path d="M0 0 C1.45606519 4.52092968 0.27032841 7.51648796 -1 12 C-1.66 12 -2.32 12 -3 12 C-3.33 12.99 -3.66 13.98 -4 15 C-3.43179252 9.54520815 -2.05362055 5.08940744 0 0 Z " fill="#F92E38" transform="translate(710,838)"/>
<path d="M0 0 C0.99 0.33 1.98 0.66 3 1 C2.50769231 8.50769231 2.50769231 8.50769231 -0.0625 11 C-1.0215625 11.495 -1.0215625 11.495 -2 12 C-1 3.42857143 -1 3.42857143 0 0 Z " fill="#BD3647" transform="translate(733,742)"/>
<path d="M0 0 C1.5625 1.25 1.5625 1.25 3 3 C2.75 4.9375 2.75 4.9375 2 7 C1.814375 7.7425 1.62875 8.485 1.4375 9.25 C1.293125 9.8275 1.14875 10.405 1 11 C0.34 11 -0.32 11 -1 11 C-1.33 11.66 -1.66 12.32 -2 13 C-1.85769192 11.58297487 -1.71099254 10.1663904 -1.5625 8.75 C-1.48128906 7.96109375 -1.40007812 7.1721875 -1.31640625 6.359375 C-1.02365007 4.17635361 -0.57935581 2.1226818 0 0 Z " fill="#DF424E" transform="translate(308,738)"/>
<path d="M0 0 C1.14203848 3.32161517 0.94757969 5.03113736 -0.5625 8.1875 C-1.67578125 10.29296875 -1.67578125 10.29296875 -3 12 C-6.25 13 -6.25 13 -9 13 C-8.2575 12.525625 -7.515 12.05125 -6.75 11.5625 C-3.13798977 8.19676319 -1.74022551 4.54986335 0 0 Z " fill="#FA2B32" transform="translate(1009,261)"/>
<path d="M0 0 C3.26008643 3.16952847 6.22237877 6.39937989 9 10 C8.67 10.66 8.34 11.32 8 12 C6.62437146 10.71034824 5.29233607 9.37310707 4 8 C4 7.34 4 6.68 4 6 C3.34 6 2.68 6 2 6 C0 3 0 3 0 0 Z " fill="#FC201F" transform="translate(681,593)"/>
<path d="M0 0 C0.33 0.66 0.66 1.32 1 2 C0.26821134 4.07196631 -0.55899003 6.1108552 -1.4375 8.125 C-1.91058594 9.22070312 -2.38367188 10.31640625 -2.87109375 11.4453125 C-3.24363281 12.28835938 -3.61617187 13.13140625 -4 14 C-4.33 14 -4.66 14 -5 14 C-5 12.35 -5 10.7 -5 9 C-4.34 9 -3.68 9 -3 9 C-2.87625 7.700625 -2.7525 6.40125 -2.625 5.0625 C-2.4140625 2.84765625 -2.4140625 2.84765625 -2 1 C-1.34 0.67 -0.68 0.34 0 0 Z " fill="#FB383F" transform="translate(972,506)"/>
<path d="M0 0 C0.66 0.66 1.32 1.32 2 2 C1.96712417 4.72869407 1.43602229 7.2966618 1 10 C0.01 10.33 -0.98 10.66 -2 11 C-1.125 3.375 -1.125 3.375 0 0 Z " fill="#FB2930" transform="translate(809,401)"/>
<path d="M0 0 C0.66 0.99 1.32 1.98 2 3 C0.35 5.64 -1.3 8.28 -3 11 C-3.66 10.34 -4.32 9.68 -5 9 C-3.35 6.03 -1.7 3.06 0 0 Z " fill="#FB2026" transform="translate(981,401)"/>
<path d="M0 0 C0.33 0 0.66 0 1 0 C1.21192221 5.19209404 0.5912689 9.126739 -1 14 C-1.33 14 -1.66 14 -2 14 C-2.3690205 4.58997722 -2.3690205 4.58997722 0 0 Z " fill="#DA222D" transform="translate(311,729)"/>
<path d="M0 0 C0.66 0.33 1.32 0.66 2 1 C1.53199289 5.05606165 1.12046792 8.46588679 -1 12 C-2.36884358 7.48281619 -1.47075246 4.41225737 0 0 Z " fill="#FB272D" transform="translate(990,445)"/>
<path d="M0 0 C0.33 0 0.66 0 1 0 C0.67 3.96 0.34 7.92 0 12 C-0.66 12 -1.32 12 -2 12 C-3.12377697 8.69564916 -2.89554742 6.9493138 -1.5625 3.75 C-1.27503906 3.04359375 -0.98757813 2.3371875 -0.69140625 1.609375 C-0.46324219 1.07828125 -0.23507812 0.5471875 0 0 Z " fill="#F61D26" transform="translate(1005,347)"/>
<path d="M0 0 C0.33 0 0.66 0 1 0 C1 2.97 1 5.94 1 9 C-0.98 9.99 -0.98 9.99 -3 11 C-2.53199289 6.94393835 -2.12046792 3.53411321 0 0 Z " fill="#D52434" transform="translate(303,766)"/>
<path d="M0 0 C1.98 0.495 1.98 0.495 4 1 C3.1875 3.9375 3.1875 3.9375 2 7 C1.01 7.33 0.02 7.66 -1 8 C-0.67 5.36 -0.34 2.72 0 0 Z " fill="#C21827" transform="translate(747,688)"/>
<path d="M0 0 C0 0.33 0 0.66 0 1 C-5.38490641 1.91657981 -10.54230189 2.11138159 -16 2 C-10.54085459 -1.63943027 -6.22885348 -0.95016409 0 0 Z " fill="#FD252A" transform="translate(856,369)"/>
<path d="M0 0 C0.33 0 0.66 0 1 0 C0.67 3.63 0.34 7.26 0 11 C-0.99 11.33 -1.98 11.66 -3 12 C-2.69106068 10.3743193 -2.3777305 8.74947252 -2.0625 7.125 C-1.88847656 6.22007812 -1.71445312 5.31515625 -1.53515625 4.3828125 C-1 2 -1 2 0 0 Z " fill="#F82B37" transform="translate(1022,331)"/>
<path d="M0 0 C2.33528415 0.17298401 3.69177582 0.70225369 5.37890625 2.33203125 C9 6.57211538 9 6.57211538 9 9 C7 9 7 9 5.2734375 7.28515625 C4.64695312 6.55167969 4.02046875 5.81820312 3.375 5.0625 C2.74335937 4.33160156 2.11171875 3.60070312 1.4609375 2.84765625 C0 1 0 1 0 0 Z " fill="#FC2323" transform="translate(713,638)"/>
<path d="M0 0 C0.66 0.66 1.32 1.32 2 2 C1.96712417 4.72869407 1.43602229 7.2966618 1 10 C0.01 10 -0.98 10 -2 10 C-1.34 6.7 -0.68 3.4 0 0 Z " fill="#E01B29" transform="translate(765,617)"/>
<path d="M0 0 C0.99 0 1.98 0 3 0 C2.34 3.63 1.68 7.26 1 11 C-1.78637633 6.8204355 -0.79562512 4.85331323 0 0 Z " fill="#FC2D29" transform="translate(373,465)"/>
<path d="M0 0 C0.33 0 0.66 0 1 0 C1 3.63 1 7.26 1 11 C0.01 11.33 -0.98 11.66 -2 12 C-1 3.42857143 -1 3.42857143 0 0 Z " fill="#D52935" transform="translate(754,660)"/>
<path d="M0 0 C0.33 0 0.66 0 1 0 C1.27615058 1.59987236 1.52007625 3.205333 1.75 4.8125 C1.88921875 5.70582031 2.0284375 6.59914063 2.171875 7.51953125 C2 10 2 10 0.015625 11.82421875 C-0.98210937 12.40623047 -0.98210937 12.40623047 -2 13 C-1.39174965 8.65535464 -0.73832608 4.32448133 0 0 Z " fill="#C43849" transform="translate(274,882)"/>
<path d="M0 0 C1.45606519 4.52092968 0.27032841 7.51648796 -1 12 C-1.66 11.34 -2.32 10.68 -3 10 C-2.625 6.375 -2.625 6.375 -2 3 C-1.34 3 -0.68 3 0 3 C0 2.01 0 1.02 0 0 Z " fill="#EF4E53" transform="translate(722,725)"/>
<path d="M0 0 C0.66 0.66 1.32 1.32 2 2 C1.75 3.6875 1.75 3.6875 1 6 C0.649375 7.2375 0.29875 8.475 -0.0625 9.75 C-0.371875 10.8225 -0.68125 11.895 -1 13 C-1.33 13 -1.66 13 -2 13 C-1.85851011 11.3954444 -1.71164314 9.79136233 -1.5625 8.1875 C-1.48128906 7.29417969 -1.40007812 6.40085937 -1.31640625 5.48046875 C-1 3 -1 3 0 0 Z " fill="#E20914" transform="translate(320,691)"/>
<path d="M0 0 C0.33 0.66 0.66 1.32 1 2 C1.66 2.33 2.32 2.66 3 3 C2.3503125 3.5878125 2.3503125 3.5878125 1.6875 4.1875 C-0.26366224 6.28319278 -1.59010162 8.51589333 -3 11 C-3.33 10.34 -3.66 9.68 -4 9 C-3.22265625 6.8359375 -3.22265625 6.8359375 -2.0625 4.375 C-1.68222656 3.55773437 -1.30195312 2.74046875 -0.91015625 1.8984375 C-0.60980469 1.27195312 -0.30945313 0.64546875 0 0 Z " fill="#FCD0D2" transform="translate(926,611)"/>
<path d="M0 0 C0.66 0.33 1.32 0.66 2 1 C0.375 3 0.375 3 -2 5 C-5.25 5.25 -5.25 5.25 -8 5 C-5.31158141 2.74754119 -3.35358125 1.11786042 0 0 Z " fill="#FE3337" transform="translate(822,540)"/>
<path d="M0 0 C0.75 1.5625 0.75 1.5625 1 4 C-0.13084437 6.50286409 -1.52139516 8.67007722 -3 11 C-3.66 11 -4.32 11 -5 11 C-3.77472971 6.94718288 -2.30119506 3.55639236 0 0 Z " fill="#FB262E" transform="translate(815,390)"/>
<path d="M0 0 C0.66 0.33 1.32 0.66 2 1 C0.71283353 2.00578589 -0.57988658 3.00446798 -1.875 4 C-2.95394531 4.8353125 -2.95394531 4.8353125 -4.0546875 5.6875 C-6 7 -6 7 -8 7 C-8 6.34 -8 5.68 -8 5 C-5 3 -5 3 -2 3 C-2 2.34 -2 1.68 -2 1 C-1.34 0.67 -0.68 0.34 0 0 Z " fill="#AF0B21" transform="translate(411,892)"/>
<path d="M0 0 C2 4 2 4 1.6875 6 C1.3471875 6.99 1.3471875 6.99 1 8 C0.814375 8.7425 0.62875 9.485 0.4375 10.25 C0.293125 10.8275 0.14875 11.405 0 12 C-0.66 12 -1.32 12 -2 12 C-1.34 8.04 -0.68 4.08 0 0 Z " fill="#FA2C28" transform="translate(371,473)"/>
<path d="M0 0 C1.65 1.65 3.3 3.3 5 5 C4.67 5.99 4.34 6.98 4 8 C2.35 6.35 0.7 4.7 -1 3 C-0.67 2.01 -0.34 1.02 0 0 Z " fill="#FC3C32" transform="translate(539,403)"/>
<path d="M0 0 C0.33 0 0.66 0 1 0 C1 1.65 1 3.3 1 5 C1.66 5.33 2.32 5.66 3 6 C2.67 7.32 2.34 8.64 2 10 C1.01 10 0.02 10 -1 10 C-0.67 6.7 -0.34 3.4 0 0 Z " fill="#D12F3D" transform="translate(299,777)"/>
<path d="M0 0 C0.66 0.66 1.32 1.32 2 2 C0.68 4.64 -0.64 7.28 -2 10 C-3.19156292 5.23374833 -2.3415946 4.12120649 0 0 Z " fill="#F90D16" transform="translate(928,603)"/>
<path d="M0 0 C0.99 0.33 1.98 0.66 3 1 C2.42415568 3.38564077 1.77772405 5.66682784 1 8 C0.34 8 -0.32 8 -1 8 C-0.67 5.36 -0.34 2.72 0 0 Z " fill="#FA2327" transform="translate(343,590)"/>
<path d="M0 0 C2.5 2.3125 2.5 2.3125 5 5 C5 5.99 5 6.98 5 8 C2.5 5.6875 2.5 5.6875 0 3 C0 2.01 0 1.02 0 0 Z " fill="#FB2928" transform="translate(675,585)"/>
<path d="M0 0 C0.66 0.99 1.32 1.98 2 3 C1.3125 5.625 1.3125 5.625 0 8 C-0.99 8.33 -1.98 8.66 -3 9 C-2.01 6.03 -1.02 3.06 0 0 Z " fill="#FDCBD0" transform="translate(950,560)"/>
<path d="M0 0 C2.5 2.3125 2.5 2.3125 5 5 C5 5.99 5 6.98 5 8 C2.5 5.6875 2.5 5.6875 0 3 C0 2.01 0 1.02 0 0 Z " fill="#FD2F28" transform="translate(645,545)"/>
<path d="M0 0 C0.66 0.33 1.32 0.66 2 1 C0.875 3 0.875 3 -1 5 C-4.1875 5.25 -4.1875 5.25 -7 5 C-4.702779 3.25728062 -2.40133271 1.60088848 0 0 Z " fill="#FC2A2E" transform="translate(859,521)"/>
<path d="M0 0 C-1.28519565 2.86697492 -2.57129254 4.97607712 -5 7 C-5.66 7 -6.32 7 -7 7 C-3.86206897 0 -3.86206897 0 0 0 Z " fill="#FD0B12" transform="translate(938,463)"/>
<path d="M0 0 C4.455 1.98 4.455 1.98 9 4 C8.01 4.66 7.02 5.32 6 6 C4.02 5.01 2.04 4.02 0 3 C0 2.01 0 1.02 0 0 Z " fill="#FC3028" transform="translate(522,390)"/>
<path d="M0 0 C0.95904856 3.83619425 0.91892116 5.32431536 0 9 C-0.99 9.33 -1.98 9.66 -3 10 C-2.01 6.7 -1.02 3.4 0 0 Z " fill="#FA2B34" transform="translate(999,362)"/>
<path d="M0 0 C1.17571451 3.67410785 1.07366746 7.16929183 1 11 C0.01 11 -0.98 11 -2 11 C-1.125 3.375 -1.125 3.375 0 0 Z " fill="#D54956" transform="translate(297,787)"/>
<path d="M0 0 C0.66 0 1.32 0 2 0 C1.34 2.97 0.68 5.94 0 9 C-0.66 8.34 -1.32 7.68 -2 7 C-2 6.01 -2 5.02 -2 4 C-1.34 4 -0.68 4 0 4 C0 2.68 0 1.36 0 0 Z " fill="#F61E20" transform="translate(734,675)"/>
<path d="M0 0 C2.5 2.3125 2.5 2.3125 5 5 C5 5.99 5 6.98 5 8 C2.5 5.6875 2.5 5.6875 0 3 C0 2.01 0 1.02 0 0 Z " fill="#FC2422" transform="translate(696,613)"/>
<path d="M0 0 C0.99 0.33 1.98 0.66 3 1 C2.34 3.31 1.68 5.62 1 8 C0.34 7.67 -0.32 7.34 -1 7 C-0.67 4.69 -0.34 2.38 0 0 Z " fill="#ED2230" transform="translate(772,589)"/>
<path d="M0 0 C0.99 0.33 1.98 0.66 3 1 C1.35 2.98 -0.3 4.96 -2 7 C-2.33 6.34 -2.66 5.68 -3 5 C-1.5625 2.375 -1.5625 2.375 0 0 Z " fill="#BD172C" transform="translate(420,881)"/>
<path d="M0 0 C5.57142857 5.14285714 5.57142857 5.14285714 6 9 C0.42857143 3.85714286 0.42857143 3.85714286 0 0 Z " fill="#C91B2A" transform="translate(679,845)"/>
<path d="M0 0 C0.33 0 0.66 0 1 0 C1.33 3.3 1.66 6.6 2 10 C1.34 10 0.68 10 0 10 C-0.74926071 6.33694766 -1.2380014 3.57644848 0 0 Z " fill="#D1404F" transform="translate(294,798)"/>
<path d="M0 0 C0.33 0 0.66 0 1 0 C2.19876651 5.44893869 1.91360308 8.22169095 -1 13 C-2.07310858 9.72814447 -1.89263102 7.57052408 -1.0625 4.25 C-0.86785156 3.45078125 -0.67320312 2.6515625 -0.47265625 1.828125 C-0.31667969 1.22484375 -0.16070312 0.6215625 0 0 Z " fill="#DF535E" transform="translate(305,751)"/>
<path d="M0 0 C0 3.69418201 -1.28179295 5.77836178 -3 9 C-3.89674777 6.48910624 -4.13172674 5.35464891 -3.1875 2.8125 C-2 1 -2 1 0 0 Z " fill="#FB242F" transform="translate(937,588)"/>
<path d="M0 0 C0.6875 1.6875 0.6875 1.6875 1 4 C-0.3125 6.75 -0.3125 6.75 -2 9 C-2.66 9 -3.32 9 -4 9 C-2.94124926 5.59687262 -1.99097846 2.98646769 0 0 Z " fill="#F1282E" transform="translate(779,575)"/>
<path d="M0 0 C0.99 0 1.98 0 3 0 C2.67 1.98 2.34 3.96 2 6 C1.01 6.33 0.02 6.66 -1 7 C-0.67 4.69 -0.34 2.38 0 0 Z " fill="#FB282A" transform="translate(354,546)"/>
<path d="M0 0 C0 3.90838866 -1.50567876 5.11594107 -4 8 C-4.99 7.67 -5.98 7.34 -7 7 C-4.69 4.69 -2.38 2.38 0 0 Z " fill="#FB3436" transform="translate(943,455)"/>
<path d="M0 0 C0.33 0 0.66 0 1 0 C1.25 5.625 1.25 5.625 -1 9 C-1.66 9 -2.32 9 -3 9 C-2.01 6.03 -1.02 3.06 0 0 Z " fill="#FA2D33" transform="translate(995,372)"/>
</svg>
