<?xml version="1.0" encoding="UTF-8"?>
<svg version="1.1" xmlns="http://www.w3.org/2000/svg" width="1774" height="887">
<path d="M0 0 C585.42 0 1170.84 0 1774 0 C1774 292.71 1774 585.42 1774 887 C1188.58 887 603.16 887 0 887 C0 594.29 0 301.58 0 0 Z " fill="#FEFDFD" transform="translate(0,0)"/>
<path d="M0 0 C37.57281553 0 37.57281553 0 47.87890625 9.62109375 C49.11469594 10.88553188 50.3426067 12.15771866 51.5625 13.4375 C55.09109824 17.09332235 58.58771625 20.70117142 62.47366333 23.98025513 C68.31304211 29.05982761 73.71100009 34.58772954 79.16748047 40.06982422 C80.3769989 41.28126494 81.58674752 42.49247589 82.79670715 43.70347595 C85.38718346 46.29709695 87.97610216 48.89225897 90.56380844 51.48864365 C94.65363338 55.5920471 98.74732034 59.69158314 102.84158325 63.79055786 C111.52236251 72.48240556 120.19888634 81.17849552 128.875 89.875 C138.26326644 99.28529272 147.65226777 108.69484535 157.04613221 118.09955037 C161.11888443 122.1772926 165.18918456 126.25746221 169.25764155 130.3394897 C171.78112179 132.87040614 174.30665133 135.39926983 176.83275414 137.92756844 C178.00674651 139.10343929 179.17987094 140.28017739 180.35207939 141.45782661 C181.94702738 143.05994676 183.54499215 144.65899511 185.14376831 146.2572937 C186.03857847 147.15432447 186.93338863 148.05135525 187.85531425 148.97556877 C189.83136523 151.0359925 189.83136523 151.0359925 192 152 C192 101.84 192 51.68 192 0 C206.19 0 220.38 0 235 0 C235 72.27 235 144.54 235 219 C191.55196571 219 191.55196571 219 181.56495667 209.41734314 C180.27839313 207.9928979 178.99386382 206.56661319 177.71118164 205.13867188 C176.22617278 203.64261149 174.73242324 202.15518639 173.23092651 200.67567444 C169.24661949 196.70238373 165.39275258 192.62244197 161.55434346 188.50870705 C157.49851417 184.20593902 153.32882459 180.01624054 149.17100525 175.81237793 C141.34564627 167.86668442 133.62487252 159.82718482 125.93848556 151.74722815 C115.52523423 140.81286907 104.95369208 130.03376723 94.39095974 119.24411583 C77.79677358 102.28523136 61.42027661 85.13138298 45 68 C44.67 118.16 44.34 168.32 44 220 C29.48 220 14.96 220 0 220 C0 147.4 0 74.8 0 0 Z " fill="#0D0C15" transform="translate(126,335)"/>
<path d="M0 0 C0.97324219 0.21527344 1.94648438 0.43054688 2.94921875 0.65234375 C19.82192647 4.80938768 34.90757869 17.66878125 44 32 C54.5243025 50.39403763 54 67.49576336 54 89 C8.46 89 -37.08 89 -84 89 C-77.02233627 105.74639296 -70.91702819 112.35892358 -55.26171875 119.921875 C-45.46987949 123.158459 -35.2921824 123.42032116 -25.0625 123.4375 C-24.38801819 123.43889984 -23.71353638 123.44029968 -23.01861572 123.44174194 C-6.95845669 123.41449885 7.73158713 120.40813159 22.40625 113.8203125 C25.61317297 112.80607482 26.82902101 112.85196673 30 114 C32.8833562 115.63710309 35.59371492 117.47986831 38.3125 119.375 C39.05306641 119.87 39.79363281 120.365 40.55664062 120.875 C41.25595703 121.35710937 41.95527344 121.83921875 42.67578125 122.3359375 C43.31427002 122.77470215 43.95275879 123.2134668 44.6105957 123.66552734 C45.29835083 124.32609131 45.29835083 124.32609131 46 125 C46 125.99 46 126.98 46 128 C45.34 128 44.68 128 44 128 C43.6596875 128.83917969 43.6596875 128.83917969 43.3125 129.6953125 C37.01483165 140.75371823 23.7129606 147.28461366 12.1875 151.25 C11.477146 151.4965332 10.76679199 151.74306641 10.03491211 151.99707031 C-2.4684949 156.04768676 -15.11880982 156.36954974 -28.125 156.3125 C-28.94126862 156.31134186 -29.75753723 156.31018372 -30.59854126 156.30899048 C-42.63170877 156.27519898 -54.24436603 155.78286025 -66 153 C-66.9178125 152.80664062 -67.835625 152.61328125 -68.78125 152.4140625 C-87.63824134 147.69981466 -106.03539439 134.77530512 -116.375 118.5 C-126.81926788 100.40640917 -130.37814794 77.23229359 -125.7421875 56.65625 C-119.82894062 35.49305062 -108.49012719 18.73498389 -89.2109375 7.67578125 C-61.96345972 -6.54461774 -29.41699126 -7.70247813 0 0 Z " fill="#260C15" transform="translate(510,401)"/>
<path d="M0 0 C14.61639788 11.65779166 24.95800021 27.23023991 27.125 46.0625 C28.02988103 56.33936314 28 66.68337625 28 77 C-13.58 77 -55.16 77 -98 77 C-91.99335685 92.6172722 -86.9537344 101.20995481 -71.94140625 107.921875 C-63.37015788 111.06352779 -55.59409296 111.38683173 -46.5 111.375 C-45.83181244 111.37478851 -45.16362488 111.37457703 -44.47518921 111.37435913 C-30.52095492 111.3302048 -18.95943916 109.39254157 -6.33203125 103.1484375 C-5.56246094 102.76945313 -4.79289062 102.39046875 -4 102 C-3.21818359 101.58717773 -2.43636719 101.17435547 -1.63085938 100.74902344 C1 100 1 100 3.2199707 101.05810547 C3.94788818 101.65510254 4.67580566 102.25209961 5.42578125 102.8671875 C6.22177734 103.50527344 7.01777344 104.14335938 7.83789062 104.80078125 C8.65451172 105.48527344 9.47113281 106.16976562 10.3125 106.875 C11.14845703 107.55175781 11.98441406 108.22851562 12.84570312 108.92578125 C14.91085526 110.60150469 16.96083036 112.29283237 19 114 C10.15011128 126.15787494 0.55533791 132.91367957 -13 139 C-14.16789062 139.54527344 -15.33578125 140.09054687 -16.5390625 140.65234375 C-27.28618432 144.8371711 -39.95157514 144.19383565 -51.3125 144.25 C-52.47998779 144.25926514 -53.64747559 144.26853027 -54.8503418 144.27807617 C-78.96413388 144.19105973 -101.86330671 136.18258108 -119.1484375 119.09375 C-123.2008157 114.85777752 -126.17106037 110.11165748 -129 105 C-129.59361328 104.08154297 -129.59361328 104.08154297 -130.19921875 103.14453125 C-132.9003075 98.91717673 -134.10114522 94.56065261 -135.2890625 89.74609375 C-135.95498192 86.97283314 -135.95498192 86.97283314 -137.02563477 84.27612305 C-138.65477529 78.79843907 -138.33306031 73.20266246 -138.31567383 67.53466797 C-138.31253892 65.40148571 -138.33591754 63.2697275 -138.36132812 61.13671875 C-138.45812154 40.38336438 -131.13106415 22.36056625 -116.8125 7.25 C-87.24028035 -21.09685143 -33.20403754 -23.98686324 0 0 Z " fill="#EC1225" transform="translate(1330,413)"/>
<path d="M0 0 C2.1016813 0.00316702 4.20195698 -0.02044695 6.3034668 -0.0456543 C27.39897054 -0.14582259 48.93190514 5.70407344 64.78979492 20.28051758 C74.07331892 30.3360602 78.31743139 42.24213869 78.12280273 55.75390625 C78.12338684 56.83815887 78.12397095 57.9224115 78.12457275 59.03952026 C78.12181076 62.5837328 78.09080749 66.12707899 78.05932617 69.67114258 C78.0518571 72.14406373 78.04616732 74.61699084 78.04217529 77.08992004 C78.02697162 83.56890474 77.987735 90.04752539 77.94335938 96.52636719 C77.90229296 103.14944536 77.88414003 109.7725829 77.86401367 116.39575195 C77.82123572 129.36924415 77.75092878 142.34237163 77.66870117 155.31567383 C65.45870117 155.31567383 53.24870117 155.31567383 40.66870117 155.31567383 C40.66870117 150.03567383 40.66870117 144.75567383 40.66870117 139.31567383 C38.89495117 140.69754883 37.12120117 142.07942383 35.29370117 143.50317383 C15.79979026 158.25775155 -7.22984945 160.52648275 -31.04370117 158.03149414 C-43.44054259 156.06758594 -57.35210458 150.13661554 -65.13208008 139.96020508 C-66.92623825 137.44541195 -68.6563415 134.91124934 -70.33129883 132.31567383 C-71.1144043 131.17098633 -71.1144043 131.17098633 -71.91333008 130.00317383 C-77.23778384 119.91164714 -77.07582021 104.57221352 -74.26879883 93.69067383 C-69.7748176 81.74892088 -61.00304934 74.09664658 -49.80395508 68.70239258 C-43.49876627 66.18457252 -36.94804493 64.7686755 -30.33129883 63.31567383 C-29.72632568 63.13842773 -29.12135254 62.96118164 -28.49804688 62.77856445 C-6.36713299 58.05065316 18.64801831 63.4029777 39.66870117 70.31567383 C39.32887412 55.46653933 39.32887412 55.46653933 32.48120117 42.56567383 C22.00943568 34.18826143 10.68283174 31.7776276 -2.51879883 32.00317383 C-3.61232666 32.01445312 -4.70585449 32.02573242 -5.83251953 32.03735352 C-18.5756656 32.25157141 -30.34321249 33.66580541 -42.53833008 37.51098633 C-45.33129883 38.31567383 -45.33129883 38.31567383 -48.33129883 38.31567383 C-49.17358341 34.75522938 -50.00353786 31.19202039 -50.83129883 27.62817383 C-51.18901367 26.11707031 -51.18901367 26.11707031 -51.55395508 24.57543945 C-51.77954102 23.59897461 -52.00512695 22.62250977 -52.23754883 21.61645508 C-52.44702148 20.72095947 -52.65649414 19.82546387 -52.87231445 18.90283203 C-53.33124395 16.31598318 -53.41391854 13.93678409 -53.33129883 11.31567383 C-35.77844786 3.59874475 -19.17289188 -0.06010311 0 0 Z " fill="#CB0C24" transform="translate(1021.331298828125,398.684326171875)"/>
<path d="M0 0 C67.65 0 135.3 0 205 0 C206.18671073 3.56013219 205.72409427 4.66747572 204.63671875 8.19140625 C204.32669922 9.21943359 204.01667969 10.24746094 203.69726562 11.30664062 C203.19743164 12.91829102 203.19743164 12.91829102 202.6875 14.5625 C200.59077682 21.39050633 198.63800539 28.10921135 197.40551758 35.15209961 C197 37 197 37 196 38 C170.26 38 144.52 38 118 38 C118 97.73 118 157.46 118 219 C103.81 219 89.62 219 75 219 C75 159.27 75 99.54 75 38 C47.28 38 19.56 38 -9 38 C-7.56250368 25.06253314 -3.46161979 12.54837172 0 0 Z " fill="#AD0D24" transform="translate(774,335)"/>
<path d="M0 0 C6.79425232 -0.28049666 13.5869982 -0.47217298 20.38574219 -0.60424805 C22.6945778 -0.65933571 25.00303366 -0.7342342 27.31054688 -0.82983398 C47.54578526 -1.64675747 47.54578526 -1.64675747 52.65014648 2.31298828 C55.18640896 5.08963154 57.07928579 7.77742913 59 11 C60.41357329 12.76938317 61.8483012 14.5222766 63.3125 16.25 C64.04210937 17.15363281 64.77171875 18.05726563 65.5234375 18.98828125 C68.97064858 23.18039441 72.53896219 27.26258925 76.10791016 31.35107422 C80.52782763 36.42454061 84.82448593 41.58815785 89.07421875 46.8046875 C90.81043339 49.06249499 90.81043339 49.06249499 93 50 C93.22558594 49.46503906 93.45117188 48.93007813 93.68359375 48.37890625 C95.42646079 45.22933348 97.71201798 42.63995369 100.0625 39.9375 C101.06201192 38.77413636 102.06069795 37.61006269 103.05859375 36.4453125 C103.55601074 35.86555664 104.05342773 35.28580078 104.56591797 34.68847656 C106.62633147 32.26256241 108.62518541 29.78846092 110.625 27.3125 C114.1882457 22.93135626 117.91482025 18.73867427 121.71875 14.56640625 C125.01525265 10.85784077 128.13235469 7.01151234 131.25 3.15234375 C133 1 133 1 134 0 C135.5348297 -0.09319449 137.07392082 -0.117458 138.61157227 -0.11352539 C139.59251358 -0.11344986 140.5734549 -0.11337433 141.5841217 -0.11329651 C142.6507756 -0.10813522 143.7174295 -0.10297394 144.81640625 -0.09765625 C146.44569313 -0.09553383 146.44569313 -0.09553383 148.1078949 -0.09336853 C151.59279075 -0.08775048 155.07762342 -0.07519492 158.5625 -0.0625 C160.91861887 -0.05748733 163.27473874 -0.05292402 165.63085938 -0.04882812 C171.42059464 -0.03777519 177.21029281 -0.02101951 183 0 C183 2 183 2 180.875 4.1953125 C180.41609375 4.63649414 179.9571875 5.07767578 179.484375 5.53222656 C176.82332297 8.16351683 174.43486897 11.03593088 172 13.875 C170.84897683 15.20965137 169.6979346 16.5442863 168.546875 17.87890625 C167.66805664 18.90008545 167.66805664 18.90008545 166.77148438 19.94189453 C163.93586115 23.23631347 161.09427015 26.52554515 158.25 29.8125 C157.70698242 30.44043457 157.16396484 31.06836914 156.60449219 31.71533203 C153.52723916 35.26550435 150.41220025 38.77487368 147.25 42.25 C144.26136747 45.54292966 141.41616395 48.91316769 138.625 52.375 C134.83000618 57.07197299 130.84235305 61.53540841 126.71728516 65.94091797 C123.05132882 69.73674577 123.05132882 69.73674577 120 74 C120.20402816 77.3600888 121.57041422 78.86349991 124 81.0625 C126.98879746 83.91792313 129.60674313 86.89552828 132.1875 90.125 C135.63761565 94.41560379 139.23773933 98.48664494 143 102.5 C147.45897099 107.26066903 151.63799464 112.16469857 155.72265625 117.25390625 C158.21826626 120.26319242 160.83768467 123.13935389 163.5 126 C167.79882961 130.6204044 171.83321106 135.39255411 175.78515625 140.31640625 C178.8331612 144.00949161 182.07613662 147.50869297 185.34765625 151.00390625 C187 153 187 153 187 155 C179.90239573 155.25464277 172.80597763 155.42911288 165.70483398 155.54931641 C163.29227692 155.59944662 160.88002128 155.66757277 158.46850586 155.75439453 C137.29795388 156.49722092 137.29795388 156.49722092 132.47705078 152.87670898 C130.1845004 150.34446806 128.59873341 148.00457027 127 145 C125.93966203 143.58661923 124.85976233 142.18741431 123.75 140.8125 C123.19570313 140.08417969 122.64140625 139.35585938 122.0703125 138.60546875 C118.81748697 134.5118185 115.35406458 130.60435316 111.91479492 126.66723633 C107.82810662 121.98031015 103.85997701 117.21865705 99.9453125 112.38671875 C97.35366152 109.20700239 94.68647628 106.09978033 92 103 C87.89607511 104.5520644 85.62160115 107.50342668 82.9375 110.8125 C81.95985414 111.99367065 80.98198316 113.17465501 80.00390625 114.35546875 C79.50648926 114.96052246 79.00907227 115.56557617 78.49658203 116.18896484 C76.60504861 118.47793628 74.6831109 120.73994816 72.75805664 123.00073242 C68.95841799 127.46304415 65.20139476 131.95558294 61.5 136.5 C60.7989917 137.32298584 60.0979834 138.14597168 59.37573242 138.99389648 C56.92103715 141.95652373 56.92103715 141.95652373 55.03979492 145.35229492 C52.07589478 150.1309528 49.05241885 154.19327851 43.41046143 155.68438721 C35.89166111 156.63745671 28.35899465 156.18339199 20.8125 155.8125 C18.50211601 155.74721112 16.19155462 155.68790949 13.88085938 155.63476562 C8.25000247 155.49230074 2.62583365 155.2755222 -3 155 C-1.28666472 152.0460819 0.42253007 149.3214673 2.6796875 146.7578125 C3.18959229 146.17443115 3.69949707 145.5910498 4.22485352 144.98999023 C5.04167603 144.06682007 5.04167603 144.06682007 5.875 143.125 C7.04826576 141.7852339 8.22144029 140.44538791 9.39453125 139.10546875 C9.99346191 138.42403809 10.59239258 137.74260742 11.20947266 137.04052734 C14.00773118 133.85156569 16.7850957 130.64462066 19.5625 127.4375 C20.3673584 126.50997925 20.3673584 126.50997925 21.18847656 125.5637207 C23.83745153 122.50877715 26.47681928 119.44631745 29.09765625 116.3671875 C33.87146438 110.76022197 38.67703525 105.21000538 43.6875 99.8125 C47.97555094 95.17843919 52.02360745 90.40752852 55.984375 85.4921875 C58.59099903 82.26926864 61.28543427 79.13219123 64 76 C60.09918902 70.51777916 55.82594449 65.55493883 51.24536133 60.64013672 C47.36604101 56.45595178 43.75837639 52.09314363 40.1796875 47.6484375 C38.02242601 45.02724881 35.78689 42.50845719 33.5 40 C30.42346328 36.62539052 27.48881783 33.18184136 24.625 29.625 C20.47205346 24.49189999 16.07116187 19.64394493 11.58984375 14.80078125 C9.35388048 12.38270332 7.13030842 9.95722191 4.9375 7.5 C4.41027344 6.9121875 3.88304687 6.324375 3.33984375 5.71875 C1.92391611 3.90239967 1.00094835 2.06750642 0 0 Z " fill="#64091B" transform="translate(575,399)"/>
<path d="M0 0 C1.28704834 0.00757324 2.57409668 0.01514648 3.90014648 0.02294922 C13.13068998 0.18301307 21.18911658 0.92467503 29.8125 4.4375 C30.86953125 4.86160156 31.9265625 5.28570312 33.015625 5.72265625 C46.95369654 12.00879655 56.93865466 23.08446442 62.76953125 37.0546875 C65.33349639 45.3707692 66.10632814 53.56921306 66.03955078 62.2331543 C66.03984283 63.24913193 66.04013489 64.26510956 66.04043579 65.31187439 C66.03905626 68.62857987 66.02356057 71.94505312 66.0078125 75.26171875 C66.00407747 77.57770159 66.00123281 79.89368603 65.99923706 82.20967102 C65.99163922 88.27424564 65.97202411 94.33872286 65.9498291 100.40325928 C65.92928738 106.60411258 65.92021761 112.80498178 65.91015625 119.00585938 C65.88877431 131.14978903 65.85362387 143.29362114 65.8125 155.4375 C52.9425 155.4375 40.0725 155.4375 26.8125 155.4375 C26.8031543 152.48562744 26.79380859 149.53375488 26.78417969 146.49243164 C26.75035877 136.72143435 26.69478119 126.95064713 26.62859726 117.17981815 C26.58914812 111.25780722 26.55694688 105.33594441 26.54150391 99.41381836 C26.52632072 93.69482055 26.49184492 87.97623005 26.44419098 82.25741386 C26.42939445 80.07946762 26.42145998 77.90146322 26.42061615 75.72346687 C26.41823961 72.66424651 26.39110363 69.6061455 26.35839844 66.54711914 C26.3634288 65.65375351 26.36845917 64.76038788 26.37364197 63.83995056 C26.23516395 55.42571931 23.37128084 48.22958953 17.63671875 42.00390625 C8.51634748 34.17249538 -2.91743035 32.94017889 -14.46875 33.125 C-23.96884054 33.92332694 -33.7519058 38.22139351 -40.0078125 45.578125 C-45.33711473 53.14727889 -46.48392286 59.98725734 -46.50634766 69.04467773 C-46.52141609 70.45072517 -46.52141609 70.45072517 -46.53678894 71.88517761 C-46.56752234 74.96381045 -46.58462871 78.04235672 -46.6015625 81.12109375 C-46.62028206 83.26344035 -46.63985606 85.40577963 -46.6602478 87.54811096 C-46.71149168 93.17206504 -46.75115889 98.79604301 -46.78839111 104.42010498 C-46.82847931 110.16489533 -46.87954968 115.909587 -46.9296875 121.65429688 C-47.02635517 132.91530202 -47.10977369 144.17634817 -47.1875 155.4375 C-60.0575 155.4375 -72.9275 155.4375 -86.1875 155.4375 C-86.1875 105.2775 -86.1875 55.1175 -86.1875 3.4375 C-74.3075 3.4375 -62.4275 3.4375 -50.1875 3.4375 C-49.5275 9.3775 -48.8675 15.3175 -48.1875 21.4375 C-46.82625 19.9525 -45.465 18.4675 -44.0625 16.9375 C-31.59468134 4.48734114 -17.42881214 -0.14268276 0 0 Z " fill="#F41C23" transform="translate(1468.1875,398.5625)"/>
<path d="M0 0 C0 17.82 0 35.64 0 54 C16.17 54 32.34 54 49 54 C47.875 64.125 47.875 64.125 46.80859375 68.69140625 C46.60806396 69.56224854 46.40753418 70.43309082 46.20092773 71.33032227 C45.94899658 72.39694092 45.69706543 73.46355957 45.4375 74.5625 C44.633125 78.006875 43.82875 81.45125 43 85 C28.81 85 14.62 85 0 85 C0.06178209 98.66817213 0.06178209 98.66817213 0.16015625 112.3359375 C0.20841988 117.91439077 0.25249131 123.49264735 0.27099609 129.07128906 C0.28619315 133.57137009 0.32069245 138.07093489 0.36830902 142.57078552 C0.38309147 144.2834371 0.39103921 145.9961624 0.39188385 147.70887756 C0.18001424 159.98370215 0.18001424 159.98370215 5 171 C10.51204642 176.01095129 17.0104029 175.59925164 24.11328125 175.3359375 C28.12935485 174.98881958 31.3844906 174.24661153 35.09375 172.734375 C38.01883393 171.6074984 40.89424555 171.33039941 44 171 C43.3105043 178.47349939 41.95100009 185.71545333 40.4375 193.0625 C40.20353516 194.21427734 39.96957031 195.36605469 39.72851562 196.55273438 C39.15586745 199.36922846 38.57961941 202.18493382 38 205 C36.12577848 205.48220263 34.25058246 205.96061833 32.375 206.4375 C31.33085938 206.70433594 30.28671875 206.97117187 29.2109375 207.24609375 C12.87383441 211.08193426 -6.39853316 210.5296262 -21.125 201.75 C-29.35795788 195.87823945 -34.97985033 188.79972806 -37.53831482 178.92158508 C-38.1645621 174.9586363 -38.13081604 171.08469465 -38.11352539 167.07885742 C-38.11367142 166.19055237 -38.11381744 165.30224731 -38.1139679 164.38702393 C-38.11327293 161.45981376 -38.1055 158.53266775 -38.09765625 155.60546875 C-38.09579059 153.57237279 -38.09436739 151.53927638 -38.09336853 149.50617981 C-38.08955499 144.16161859 -38.07973462 138.81708464 -38.06866455 133.47253418 C-38.05842543 128.01619842 -38.05386555 122.55985823 -38.04882812 117.10351562 C-38.03811132 106.40232985 -38.02052392 95.70117146 -38 85 C-45.92 85 -53.84 85 -62 85 C-62 74.77 -62 64.54 -62 54 C-54.08 54 -46.16 54 -38 54 C-38.25523438 51.92460937 -38.51046875 49.84921875 -38.7734375 47.7109375 C-40.7824441 26.88136899 -40.7824441 26.88136899 -36.06640625 20.30273438 C-30.95226535 15.83089079 -24.99336777 13.0224222 -18.81347656 10.30078125 C-14.84260403 8.46489017 -11.33918924 6.10606493 -7.75 3.625 C-2.24 0 -2.24 0 0 0 Z " fill="#F82622" transform="translate(1613,348)"/>
<path d="M0 0 C12.87 0 25.74 0 39 0 C39 72.6 39 145.2 39 220 C26.13 220 13.26 220 0 220 C0 147.4 0 74.8 0 0 Z " fill="#DF0D25" transform="translate(1129,334)"/>
<path d="M0 0 C1.02442703 -0.00151062 1.02442703 -0.00151062 2.06954956 -0.00305176 C11.97794907 0.00687752 21.18887177 0.41487637 30.75 3.25 C31.99523438 3.60964844 33.24046875 3.96929687 34.5234375 4.33984375 C37.61567026 5.26619493 40.68682974 6.23238695 43.75 7.25 C44.42232007 15.19333708 44.34599969 21.33896766 39.70703125 28.03125 C32.30451578 36.42372263 21.72645414 40.90311859 10.75 42.25 C6.83273356 42.46489004 2.92254952 42.52635857 -1 42.5625 C-2.03382813 42.59150391 -3.06765625 42.62050781 -4.1328125 42.65039062 C-12.55662504 42.71935131 -19.83561759 41.03696411 -26.6875 35.9375 C-31.51887477 30.87044842 -32.46401193 26.64912844 -32.875 19.8125 C-32.7273534 13.97374802 -31.52235968 10.87672457 -27.328125 6.8359375 C-18.71608927 0.26359444 -10.51840095 0.01060338 0 0 Z " fill="#FDFAFB" transform="translate(1017.25,485.75)"/>
<path d="M0 0 C0.97839844 0.43570312 1.95679688 0.87140625 2.96484375 1.3203125 C12.36364765 5.93771146 17.6182195 11.88568148 21.37109375 21.60546875 C22 24 22 24 22 29 C-10.01 29 -42.02 29 -75 29 C-73.7160076 18.72806081 -70.18892307 12.35807133 -62.3125 5.625 C-45.9522598 -6.53902592 -18.46093993 -8.65272585 0 0 Z " fill="#FAFAFA" transform="translate(501,434)"/>
<path d="M0 0 C0.78310547 0.00563965 1.56621094 0.0112793 2.37304688 0.01708984 C15.48899781 0.28788114 26.38528296 3.59743432 36.125 12.625 C42.17585476 19.11929802 44.20186518 24.42742141 45.3125 33.3125 C16.2725 33.3125 -12.7675 33.3125 -42.6875 33.3125 C-41.46455691 23.52895524 -38.01548341 16.67693898 -30.80078125 9.91015625 C-21.60222072 2.95597648 -11.36750186 -0.08656714 0 0 Z " fill="#FDF9FA" transform="translate(1274.6875,429.6875)"/>
<path d="M0 0 C12.87 0 25.74 0 39 0 C39 72.6 39 145.2 39 220 C26.13 220 13.26 220 0 220 C0 147.4 0 74.8 0 0 Z M2 2 C2 73.61 2 145.22 2 219 C13.55 219 25.1 219 37 219 C37 147.39 37 75.78 37 2 C25.45 2 13.9 2 2 2 Z " fill="#E22536" transform="translate(1129,334)"/>
<path d="M0 0 C0 0.66 0 1.32 0 2 C-6.75 5 -6.75 5 -9 5 C-9 5.66 -9 6.32 -9 7 C-10.65 7.33 -12.3 7.66 -14 8 C-14 8.66 -14 9.32 -14 10 C-14.66 10 -15.32 10 -16 10 C-16.268125 10.639375 -16.53625 11.27875 -16.8125 11.9375 C-18 14 -18 14 -21 15 C-21.73323796 17.01508358 -21.73323796 17.01508358 -22 19 C-22.99 19 -23.98 19 -25 19 C-22.21176409 10.70715403 -15.08145808 6.32733967 -7.5625 2.5 C-2.35638298 0 -2.35638298 0 0 0 Z " fill="#C1182C" transform="translate(977,466)"/>
<path d="M0 0 C0.66 0 1.32 0 2 0 C1.68806536 1.72926874 1.37542638 3.45841044 1.0625 5.1875 C0.88847656 6.15042969 0.71445312 7.11335938 0.53515625 8.10546875 C0.0476265 10.74239972 -0.46671105 13.3719905 -1 16 C-2.32 15.67 -3.64 15.34 -5 15 C-4.67 14.01 -4.34 13.02 -4 12 C-3.34 12 -2.68 12 -2 12 C-1.90912109 11.07767578 -1.90912109 11.07767578 -1.81640625 10.13671875 C-1.69072266 8.92435547 -1.69072266 8.92435547 -1.5625 7.6875 C-1.48128906 6.88699219 -1.40007813 6.08648437 -1.31640625 5.26171875 C-1 3 -1 3 0 0 Z " fill="#C7152A" transform="translate(972,356)"/>
<path d="M0 0 C0.99 0.33 1.98 0.66 3 1 C3 1.66 3 2.32 3 3 C1.01739574 4.68732277 -0.9832342 6.35366057 -3 8 C-3.33 8.66 -3.66 9.32 -4 10 C-5.32 9.67 -6.64 9.34 -8 9 C-5.36 6.03 -2.72 3.06 0 0 Z " fill="#7C1928" transform="translate(708,400)"/>
<path d="M0 0 C0.99 0.33 1.98 0.66 3 1 C0.03 4.3 -2.94 7.6 -6 11 C-6.99 10.67 -7.98 10.34 -9 10 C-6.03 6.7 -3.06 3.4 0 0 Z " fill="#571925" transform="translate(600,520)"/>
<path d="M0 0 C0.99 0.33 1.98 0.66 3 1 C3 1.66 3 2.32 3 3 C3.66 3 4.32 3 5 3 C9 7.47058824 9 7.47058824 9 10 C9.66 10 10.32 10 11 10 C10.67 10.99 10.34 11.98 10 13 C8.32722165 11.21371169 6.66175557 9.4214925 5 7.625 C4.28457031 6.86316406 4.28457031 6.86316406 3.5546875 6.0859375 C0 2.2265625 0 2.2265625 0 0 Z " fill="#431019" transform="translate(580,404)"/>
<path d="M0 0 C0.66 0.33 1.32 0.66 2 1 C0.55746343 4.36591866 -1.33264727 6.51047079 -4 9 C-4.99 8.67 -5.98 8.34 -7 8 C-4.69 5.36 -2.38 2.72 0 0 Z " fill="#45101B" transform="translate(579,545)"/>
<path d="M0 0 C0 0.66 0 1.32 0 2 C-1.98 2.66 -3.96 3.32 -6 4 C-6 5.65 -6 7.3 -6 9 C-6.99 8.67 -7.98 8.34 -9 8 C-9 6.35 -9 4.7 -9 3 C-3.375 0 -3.375 0 0 0 Z " fill="#C41F33" transform="translate(977,407)"/>
<path d="M0 0 C1.66666667 1.66666667 3.33333333 3.33333333 5 5 C5.61875 5.515625 6.2375 6.03125 6.875 6.5625 C7.431875 7.2740625 7.431875 7.2740625 8 8 C7.5703125 10.08984375 7.5703125 10.08984375 7 12 C5.821389 10.76125579 4.65747085 9.5085199 3.5 8.25 C2.8503125 7.55390625 2.200625 6.8578125 1.53125 6.140625 C0 4 0 4 0 0 Z " fill="#5A1A28" transform="translate(609,436)"/>
<path d="M0 0 C5.28 0 10.56 0 16 0 C14.515 1.485 14.515 1.485 13 3 C9.86328125 2.85546875 9.86328125 2.85546875 6.3125 2.1875 C4.54326172 1.86845703 4.54326172 1.86845703 2.73828125 1.54296875 C1.83464844 1.36378906 0.93101562 1.18460937 0 1 C0 0.67 0 0.34 0 0 Z " fill="#D3172A" transform="translate(1007,399)"/>
<path d="M0 0 C3.51463012 1.89980007 5.89550678 3.56635317 8 7 C8 7.66 8 8.32 8 9 C4.63704165 7.55873214 2.37072898 5.79407345 0 3 C0 2.01 0 1.02 0 0 Z " fill="#7C1425" transform="translate(702,541)"/>
<path d="M0 0 C1.66666667 1.66666667 3.33333333 3.33333333 5 5 C5.8971875 5.8353125 5.8971875 5.8353125 6.8125 6.6875 C8 8 8 8 8 10 C5.69 9.67 3.38 9.34 1 9 C1.66 8.01 2.32 7.02 3 6 C2.2575 5.071875 2.2575 5.071875 1.5 4.125 C0 2 0 2 0 0 Z " fill="#831628" transform="translate(754,544)"/>
<path d="M0 0 C4.87685861 1.35468295 6.48592381 3.71675909 9 8 C8.34 8.66 7.68 9.32 7 10 C7 9.01 7 8.02 7 7 C5.68 6.34 4.36 5.68 3 5 C3 4.01 3 3.02 3 2 C2.01 2 1.02 2 0 2 C0 1.34 0 0.68 0 0 Z " fill="#DB1F31" transform="translate(1081,417)"/>
<path d="M0 0 C0.66 0.99 1.32 1.98 2 3 C0.35 4.98 -1.3 6.96 -3 9 C-3.99 8.34 -4.98 7.68 -6 7 C-4.02 4.69 -2.04 2.38 0 0 Z " fill="#7C1B2A" transform="translate(696,414)"/>
<path d="M0 0 C0.66 0.33 1.32 0.66 2 1 C-0.64 3.97 -3.28 6.94 -6 10 C-6.33 9.01 -6.66 8.02 -7 7 C-4.69 4.69 -2.38 2.38 0 0 Z " fill="#190F16" transform="translate(407,419)"/>
<path d="M0 0 C3.35915158 1.43963639 5.71624938 3.12416589 8 6 C7.60546875 8.1328125 7.60546875 8.1328125 7 10 C5.82739389 8.71372289 4.6620717 7.42080217 3.5 6.125 C2.8503125 5.40570313 2.200625 4.68640625 1.53125 3.9453125 C0 2 0 2 0 0 Z " fill="#531A24" transform="translate(591,417)"/>
<path d="M0 0 C-1.55500981 3.81684226 -4.03595495 6.19195732 -7 9 C-7 5.39222485 -6.0095568 3.93704456 -4 1 C-2 0 -2 0 0 0 Z " fill="#C41A31" transform="translate(992,490)"/>
<path d="M0 0 C0 0.66 0 1.32 0 2 C-6.96428571 5.34821429 -6.96428571 5.34821429 -11 4 C-9.5437455 3.32880451 -8.08492133 2.66318193 -6.625 2 C-5.81289063 1.62875 -5.00078125 1.2575 -4.1640625 0.875 C-2 0 -2 0 0 0 Z " fill="#CC2939" transform="translate(977,466)"/>
<path d="M0 0 C0.05395478 1.62463842 0.09277195 3.24978541 0.125 4.875 C0.14820313 5.77992188 0.17140625 6.68484375 0.1953125 7.6171875 C0 10 0 10 -2 12 C-1.96519531 11.06027344 -1.96519531 11.06027344 -1.9296875 10.1015625 C-1.91164063 9.28429687 -1.89359375 8.46703125 -1.875 7.625 C-1.85179687 6.81289063 -1.82859375 6.00078125 -1.8046875 5.1640625 C-1.78629949 2.78657757 -1.78629949 2.78657757 -4 1 C-2 0 -2 0 0 0 Z " fill="#F8352C" transform="translate(1613,348)"/>
<path d="M0 0 C1.32 0.66 2.64 1.32 4 2 C-0.455 3.485 -0.455 3.485 -5 5 C-5.66 4.34 -6.32 3.68 -7 3 C-3.75 1.375 -3.75 1.375 0 0 Z " fill="#FDF1F2" transform="translate(1240,401)"/>
<path d="M0 0 C2.31 1.98 4.62 3.96 7 6 C6.34 6.66 5.68 7.32 5 8 C3.02 5.69 1.04 3.38 -1 1 C-0.67 0.67 -0.34 0.34 0 0 Z " fill="#17131A" transform="translate(309,480)"/>
<path d="M0 0 C2.97 0 5.94 0 9 0 C7.515 2.475 7.515 2.475 6 5 C5.67 4.01 5.34 3.02 5 2 C3.35 1.67 1.7 1.34 0 1 C0 0.67 0 0.34 0 0 Z " fill="#770A1F" transform="translate(748,400)"/>
<path d="M0 0 C0.66 0.99 1.32 1.98 2 3 C-0.31 4.98 -2.62 6.96 -5 9 C-5.66 8.67 -6.32 8.34 -7 8 C-6.21625 7.236875 -5.4325 6.47375 -4.625 5.6875 C-1.92742283 3.09108195 -1.92742283 3.09108195 0 0 Z " fill="#D82436" transform="translate(1058,510)"/>
<path d="M0 0 C0.66 0.99 1.32 1.98 2 3 C-0.31 4.98 -2.62 6.96 -5 9 C-3.7508258 5.54074837 -2.32472205 2.85306797 0 0 Z " fill="#D8D4D7" transform="translate(434,444)"/>
<path d="M0 0 C0.66 0.33 1.32 0.66 2 1 C1.34 2.32 0.68 3.64 0 5 C-0.99 5 -1.98 5 -3 5 C-1.125 1.125 -1.125 1.125 0 0 Z " fill="#7D1F2E" transform="translate(680,433)"/>
<path d="M0 0 C0.33 0.66 0.66 1.32 1 2 C-0.32 3.32 -1.64 4.64 -3 6 C-3.99 5.34 -4.98 4.68 -6 4 C-4.02 2.68 -2.04 1.36 0 0 Z " fill="#F32031" transform="translate(1224,412)"/>
<path d="M0 0 C0.33 0.99 0.66 1.98 1 3 C-1.25 4.5625 -1.25 4.5625 -4 6 C-5.32 5.67 -6.64 5.34 -8 5 C-4.04 2.525 -4.04 2.525 0 0 Z " fill="#F93F36" transform="translate(1603,353)"/>
<path d="M0 0 C-1 2 -1 2 -4.0625 3.125 C-5.031875 3.41375 -6.00125 3.7025 -7 4 C-7 3.01 -7 2.02 -7 1 C-3.375 -1.125 -3.375 -1.125 0 0 Z " fill="#3A0F19" transform="translate(532,547)"/>
</svg>
